<svg id="svg" version="1.1" xmlns="http://www.w3.org/2000/svg" xmlns:xlink="http://www.w3.org/1999/xlink" width="400" height="567.7183356195701" viewBox="0, 0, 400,567.7183356195701"><g id="svgg"><path id="path0" d="M189.941 0.502 C 165.065 1.966,144.915 5.382,124.273 11.636 C 117.950 13.552,112.040 15.656,105.562 18.298 C 99.968 20.579,99.684 20.708,92.899 24.031 C 61.716 39.304,37.486 62.054,21.191 91.361 C 18.501 96.199,13.995 105.806,12.255 110.414 C 11.862 111.456,11.333 112.840,11.080 113.491 C 8.513 120.101,5.251 131.546,3.686 139.430 C -0.365 159.852,-0.861 177.045,1.785 205.325 C 1.980 207.408,2.197 209.805,2.267 210.651 C 2.657 215.369,4.198 228.546,5.104 234.911 C 6.128 242.108,7.880 252.223,9.101 257.988 C 9.281 258.834,9.656 260.645,9.935 262.012 C 10.214 263.379,10.592 265.189,10.775 266.036 C 12.876 275.765,13.904 280.470,14.574 283.432 C 14.872 284.746,15.878 289.603,16.241 291.479 C 16.532 292.978,16.656 294.802,16.660 297.633 L 16.666 301.657 15.104 307.929 C 14.245 311.379,13.362 315.053,13.142 316.095 C 12.922 317.136,12.220 319.639,11.582 321.657 C 0.362 357.116,14.773 386.290,45.849 391.026 C 48.253 391.392,48.048 391.228,48.926 393.491 C 51.031 398.917,52.852 405.656,54.554 414.320 C 55.836 420.845,56.037 421.910,56.565 424.970 C 56.834 426.533,57.157 428.343,57.283 428.994 C 57.408 429.645,57.611 430.870,57.734 431.716 C 57.856 432.562,58.234 435.012,58.573 437.160 C 58.913 439.308,59.289 441.811,59.410 442.722 C 59.530 443.633,59.953 446.615,60.348 449.349 C 61.047 454.176,61.246 455.604,62.258 463.077 C 64.841 482.153,67.428 491.223,72.789 500.000 C 79.616 511.180,86.381 517.805,96.358 523.084 C 101.865 525.998,104.536 528.165,111.924 535.716 C 119.183 543.136,122.371 546.054,127.293 549.782 C 145.390 563.489,166.022 569.208,191.479 567.573 C 193.497 567.444,196.559 567.245,198.283 567.132 C 200.548 566.983,202.217 567.014,204.295 567.241 C 228.250 569.868,250.468 564.873,267.929 552.936 C 275.180 547.979,277.007 546.409,287.101 536.461 C 297.347 526.362,297.619 526.143,304.497 522.479 C 312.230 518.360,318.620 512.353,324.636 503.550 C 331.271 493.840,334.815 482.985,337.039 465.562 C 337.313 463.414,337.684 460.645,337.864 459.408 C 338.043 458.172,338.354 455.988,338.555 454.556 C 340.859 438.142,341.976 431.023,343.923 420.355 C 345.293 412.853,347.118 404.751,348.296 400.947 C 350.693 393.205,351.395 391.480,352.151 391.477 C 352.979 391.474,357.746 390.636,359.603 390.168 C 389.803 382.549,401.718 350.789,387.347 316.213 C 386.617 314.456,385.637 311.580,385.171 309.822 C 384.705 308.065,384.049 305.669,383.714 304.497 C 383.148 302.521,383.105 302.025,383.114 297.633 C 383.124 292.487,383.482 290.164,385.814 280.118 C 386.764 276.022,387.026 274.901,387.335 273.609 C 388.809 267.451,391.537 254.033,392.196 249.704 C 392.305 248.988,392.663 246.805,392.992 244.852 C 394.479 236.020,396.213 222.652,397.276 211.834 C 400.970 174.240,399.668 149.874,392.659 125.444 C 391.778 122.374,389.665 115.786,389.167 114.556 C 388.929 113.969,388.791 113.613,387.559 110.414 C 378.169 86.033,361.610 63.192,341.061 46.277 C 339.957 45.368,339.000 44.566,338.935 44.495 C 338.661 44.196,334.609 41.139,332.308 39.496 C 322.221 32.294,312.481 26.637,301.065 21.350 C 290.730 16.564,281.063 13.088,267.101 9.138 C 261.654 7.597,252.173 5.551,244.497 4.260 C 242.870 3.986,240.953 3.663,240.237 3.541 C 226.329 1.179,202.704 -0.249,189.941 0.502 M217.041 7.309 C 223.222 7.812,224.699 7.963,231.479 8.782 C 243.864 10.279,257.859 13.083,269.112 16.323 C 270.089 16.605,271.463 16.990,272.166 17.181 C 295.197 23.423,322.128 37.835,340.000 53.483 C 362.359 73.060,380.059 101.535,387.083 129.231 C 387.166 129.556,387.591 131.207,388.029 132.899 C 389.216 137.493,389.976 141.203,391.217 148.458 C 392.946 158.565,393.634 173.894,392.925 186.509 C 391.545 211.060,388.460 237.222,384.968 253.964 C 383.847 259.344,383.035 263.128,382.608 264.970 C 381.961 267.767,381.305 270.713,380.473 274.556 C 380.008 276.704,379.476 279.154,379.291 280.000 C 379.105 280.846,378.831 282.178,378.682 282.959 C 378.400 284.433,378.011 285.437,377.994 284.734 C 377.989 284.538,377.821 283.314,377.620 282.012 C 375.515 268.356,375.094 248.740,376.574 233.254 C 376.711 231.822,377.034 228.521,377.292 225.917 C 377.550 223.314,377.808 220.651,377.864 220.000 C 378.000 218.429,376.349 224.954,375.277 230.220 C 368.571 263.184,370.117 291.480,380.023 317.087 C 387.746 337.050,387.850 353.233,380.338 366.391 C 372.725 379.726,359.738 385.418,336.923 385.419 C 324.328 385.420,321.433 384.758,305.620 378.261 C 297.980 375.122,293.842 374.287,286.913 374.487 C 283.116 374.597,280.178 375.123,283.264 375.141 C 288.268 375.170,294.295 376.614,299.556 379.044 L 301.335 379.866 300.629 380.892 C 295.773 387.951,293.567 397.315,289.580 427.811 C 289.393 429.243,289.120 431.143,288.974 432.033 L 288.707 433.652 288.234 432.862 C 286.080 429.263,282.964 429.106,281.414 432.518 L 280.768 433.942 280.283 432.990 C 279.741 431.928,278.160 430.394,277.250 430.049 C 274.644 429.058,272.855 430.818,271.838 435.377 C 271.684 436.065,271.668 436.051,270.988 434.634 C 268.969 430.427,264.228 428.684,261.860 431.279 C 261.106 432.106,260.192 434.060,259.657 435.989 C 259.060 438.144,259.037 438.161,258.716 436.666 C 257.747 432.148,254.243 428.771,250.513 428.762 C 247.270 428.753,245.670 430.791,244.125 436.897 C 243.444 439.589,243.445 439.588,243.090 438.175 C 241.995 433.810,239.861 430.945,236.589 429.447 C 230.891 426.838,227.278 430.818,225.557 441.598 C 225.200 443.834,225.044 443.763,224.514 441.124 C 222.067 428.929,214.407 421.739,208.589 426.176 C 205.832 428.279,203.032 434.911,201.803 442.249 L 201.526 443.905 200.076 443.975 L 198.627 444.045 198.463 442.792 C 197.745 437.313,195.223 430.396,192.892 427.516 C 187.388 420.713,178.005 428.001,175.751 440.831 C 175.287 443.469,174.955 444.564,174.927 443.550 C 174.823 439.873,172.413 432.457,170.681 430.485 C 166.855 426.127,159.433 429.880,157.398 437.201 C 156.792 439.380,156.451 439.997,156.447 438.923 C 156.441 437.585,155.089 433.253,154.157 431.585 C 152.184 428.054,148.398 427.670,144.918 430.649 C 143.228 432.096,141.302 435.698,141.302 437.411 C 141.302 438.302,140.913 437.673,140.604 436.283 C 140.140 434.193,138.821 431.597,137.845 430.852 C 135.217 428.848,130.716 430.924,129.084 434.893 C 128.543 436.207,128.384 436.243,128.222 435.089 C 127.423 429.399,123.113 428.004,120.210 432.496 L 119.300 433.904 119.043 433.228 C 117.565 429.341,114.811 428.935,112.409 432.250 C 111.589 433.383,111.661 433.565,111.026 428.757 C 106.889 397.450,105.095 389.497,100.455 381.893 C 99.268 379.949,99.187 380.098,102.144 378.752 C 106.922 376.577,112.916 375.182,117.633 375.145 C 121.156 375.118,118.221 374.591,113.971 374.488 C 106.107 374.296,102.438 375.203,90.557 380.277 C 78.060 385.613,62.859 387.011,47.574 384.229 C 18.614 378.959,7.688 352.020,20.709 317.988 C 31.796 289.009,32.823 253.939,23.565 220.473 L 23.238 219.290 23.218 220.237 C 23.208 220.757,23.299 221.822,23.421 222.604 C 25.835 238.030,25.890 266.480,23.535 281.420 C 22.487 288.067,22.171 289.251,21.899 287.555 C 21.807 286.979,21.585 285.870,21.407 285.089 C 19.726 277.751,17.661 268.680,17.365 267.337 C 17.164 266.426,16.856 265.041,16.680 264.260 C 14.436 254.310,12.069 240.275,10.312 226.509 C 9.344 218.924,7.829 203.868,7.340 196.982 C 7.208 195.127,6.979 192.092,6.830 190.237 C 4.989 167.333,8.221 140.776,15.423 119.645 C 31.731 71.793,69.338 36.348,122.750 18.488 C 123.546 18.222,125.117 17.734,126.241 17.405 C 127.365 17.075,129.216 16.531,130.355 16.196 C 133.094 15.391,140.002 13.668,143.550 12.905 C 145.112 12.568,147.083 12.144,147.929 11.961 C 148.775 11.779,150.746 11.405,152.308 11.131 C 153.870 10.857,155.680 10.533,156.331 10.410 C 158.573 9.989,166.435 8.891,170.651 8.411 C 174.241 8.001,179.500 7.533,184.024 7.221 C 186.888 7.023,189.763 6.821,190.414 6.773 C 194.090 6.499,211.375 6.847,217.041 7.309 M106.283 233.643 C 79.315 235.354,63.808 251.144,66.391 274.262 C 69.397 301.177,96.931 323.609,121.302 319.000 C 141.710 315.141,157.247 298.040,159.861 276.559 C 162.886 251.699,146.113 235.062,116.568 233.617 C 111.117 233.350,110.897 233.351,106.283 233.643 M282.986 233.634 C 252.882 235.065,235.976 253.712,240.964 279.985 C 246.084 306.958,272.299 325.027,296.265 318.102 C 322.738 310.454,340.315 280.895,332.304 257.499 C 327.500 243.468,313.421 234.844,293.323 233.621 C 288.919 233.353,288.907 233.353,282.986 233.634 M197.947 305.557 C 188.635 307.546,177.768 325.458,172.527 347.456 C 172.139 349.083,171.717 350.840,171.587 351.361 C 169.291 360.609,169.110 371.123,171.175 375.239 C 175.154 383.172,192.088 383.705,199.112 376.118 L 200.357 374.773 201.572 376.085 C 208.536 383.604,225.346 383.264,229.662 375.517 C 232.915 369.678,231.137 352.450,225.569 335.859 C 218.468 314.701,208.147 303.378,197.947 305.557 M76.020 391.368 C 89.739 394.239,97.330 407.740,106.026 444.734 C 108.494 455.237,109.615 458.950,111.450 462.709 C 111.987 463.809,112.426 464.880,112.426 465.089 C 112.426 465.637,113.730 467.613,114.288 467.912 C 115.604 468.616,117.038 467.699,117.696 465.734 L 118.030 464.734 118.434 466.627 C 120.005 473.998,123.278 476.065,125.177 470.885 C 125.463 470.105,125.758 469.308,125.833 469.112 C 125.909 468.917,126.267 469.876,126.629 471.243 C 129.029 480.284,133.072 480.869,134.812 472.426 C 134.968 471.668,135.030 471.804,135.540 474.018 C 137.750 483.618,142.000 485.003,144.642 476.985 C 145.211 475.259,145.557 474.815,145.568 475.799 C 145.575 476.454,146.374 479.503,146.917 480.947 C 149.631 488.161,154.522 486.059,155.862 477.103 C 156.060 475.775,156.348 475.823,156.563 477.220 C 157.256 481.718,159.370 486.281,161.197 487.226 C 163.927 488.638,166.143 485.527,167.113 478.922 L 167.424 476.805 167.733 478.225 C 170.599 491.367,176.613 494.682,179.493 484.707 L 180.053 482.766 180.349 484.046 C 181.605 489.490,183.276 491.837,185.893 491.832 C 189.140 491.826,191.890 489.133,193.021 484.852 C 193.458 483.200,193.460 483.198,193.654 484.024 C 195.394 491.416,198.247 493.572,202.530 490.729 C 204.593 489.360,205.369 488.141,206.273 484.852 C 206.819 482.864,206.856 482.869,207.317 484.973 C 208.135 488.711,210.851 491.489,213.962 491.771 C 216.750 492.024,218.372 490.146,219.613 485.229 C 219.889 484.134,220.152 483.201,220.197 483.156 C 220.242 483.111,220.475 483.740,220.715 484.555 C 223.571 494.265,229.798 491.400,232.311 479.221 C 232.725 477.217,233.124 476.834,233.132 478.432 C 233.146 481.065,235.159 486.426,236.409 487.160 C 239.372 488.899,241.650 485.871,243.753 477.396 L 244.193 475.621 244.380 476.805 C 246.027 487.242,251.554 488.326,254.084 478.708 C 254.471 477.235,254.541 477.123,254.739 477.643 C 257.510 484.896,261.941 482.995,263.685 473.804 C 264.039 471.942,264.272 471.654,264.481 472.823 C 265.914 480.824,270.391 479.922,272.556 471.195 L 273.208 468.566 273.844 470.366 C 275.845 476.035,279.100 474.351,280.688 466.826 C 281.087 464.936,281.657 464.588,281.657 466.234 C 281.657 466.326,281.984 466.798,282.384 467.283 C 283.654 468.824,285.351 468.298,286.357 466.053 C 286.586 465.540,287.232 464.676,287.793 464.132 C 289.666 462.314,291.415 457.616,293.474 448.876 C 293.750 447.704,294.131 446.107,294.320 445.325 C 294.510 444.544,295.094 442.095,295.618 439.882 C 304.560 402.131,314.488 389.033,332.308 391.476 C 333.154 391.592,336.255 391.763,339.198 391.856 L 344.550 392.025 343.676 394.652 C 343.195 396.096,342.629 397.864,342.417 398.580 C 342.205 399.296,341.872 400.414,341.677 401.065 C 339.787 407.361,336.829 423.008,334.316 440.000 C 333.313 446.787,332.536 452.283,331.491 460.000 C 329.123 477.486,328.240 481.559,325.201 488.994 C 319.771 502.281,311.243 511.892,299.489 517.973 C 294.765 520.417,292.268 522.508,281.662 532.900 C 264.248 549.963,253.633 556.017,234.169 559.986 C 226.014 561.649,210.193 562.157,204.260 560.948 C 202.637 560.617,196.883 560.673,193.964 561.049 C 188.242 561.785,176.727 561.733,171.358 560.947 C 148.577 557.609,136.215 551.034,117.041 532.056 C 106.756 521.876,105.224 520.626,99.053 517.390 C 85.977 510.533,75.175 495.970,71.610 480.391 C 70.165 474.079,69.464 469.767,67.332 454.083 C 66.531 448.191,65.426 440.466,64.963 437.515 C 63.810 430.164,62.846 424.316,62.331 421.538 C 62.004 419.781,61.590 417.544,61.409 416.568 C 60.088 409.434,57.710 399.840,55.980 394.669 C 55.522 393.301,55.148 392.131,55.148 392.067 C 55.148 392.004,56.884 391.953,59.006 391.953 C 62.838 391.953,68.147 391.628,70.414 391.256 C 72.317 390.943,74.165 390.980,76.020 391.368 M189.705 426.240 C 194.591 428.460,197.999 439.619,199.046 456.830 C 199.488 464.100,197.473 465.937,188.757 466.210 C 181.621 466.434,178.209 465.223,176.809 461.969 C 175.414 458.726,175.616 445.459,177.160 438.935 C 179.112 430.689,185.428 424.297,189.705 426.240 M214.551 426.398 C 218.997 428.502,222.506 434.817,223.819 443.077 C 224.408 446.788,224.400 458.271,223.806 460.590 C 222.694 464.931,220.244 466.154,212.663 466.153 C 203.362 466.152,200.663 464.262,201.050 458.024 C 202.499 434.671,207.462 423.045,214.551 426.398 M151.226 429.932 C 154.337 431.541,156.248 438.610,155.771 446.746 C 155.619 449.349,155.496 452.546,155.499 453.849 L 155.503 456.219 151.775 459.918 C 149.725 461.953,147.815 463.736,147.530 463.880 C 145.520 464.899,143.539 462.958,141.951 458.411 L 141.183 456.213 141.194 449.586 C 141.214 437.197,143.004 431.948,147.857 430.052 C 149.242 429.511,150.336 429.472,151.226 429.932 M168.533 430.066 C 172.368 432.022,174.938 443.679,174.635 457.746 C 174.515 463.335,173.129 464.762,167.363 465.229 C 162.284 465.641,158.442 464.148,157.134 461.253 C 155.509 457.656,156.864 440.358,159.166 435.331 C 161.092 431.124,165.620 428.579,168.533 430.066 M236.363 430.437 C 241.471 432.846,243.550 439.547,243.550 453.601 C 243.550 460.201,243.447 460.969,242.346 462.514 C 239.577 466.403,228.489 466.136,226.137 462.123 L 225.503 461.041 225.633 454.130 C 225.992 435.098,229.556 427.227,236.363 430.437 M252.899 430.314 C 257.280 432.395,258.983 437.781,259.029 449.704 L 259.053 455.976 258.285 458.245 C 256.961 462.159,255.338 464.142,253.459 464.142 C 252.786 464.142,252.216 463.666,248.714 460.187 L 244.734 456.231 244.733 453.737 C 244.732 452.365,244.608 449.751,244.456 447.929 C 244.083 443.436,244.123 441.963,244.702 439.053 C 246.345 430.796,248.678 428.309,252.899 430.314 M125.223 431.014 C 126.843 431.881,128.000 436.973,127.584 441.405 C 127.417 443.178,127.214 446.214,127.132 448.152 L 126.982 451.675 126.154 451.973 C 123.681 452.864,120.431 452.096,119.586 450.422 C 118.390 448.054,119.158 436.701,120.723 433.609 C 121.752 431.576,123.928 430.321,125.223 431.014 M277.004 431.093 C 279.823 432.271,281.019 436.420,281.049 445.129 C 281.067 450.579,281.012 450.761,279.039 451.792 C 277.743 452.469,274.575 452.448,273.516 451.754 L 272.899 451.350 272.884 447.273 C 272.875 445.030,272.732 442.237,272.566 441.065 C 272.265 438.941,272.326 438.140,273.040 434.793 C 273.724 431.590,275.105 430.300,277.004 431.093 M116.701 431.251 C 118.053 431.974,118.944 435.496,118.467 438.232 C 118.226 439.614,118.107 441.851,118.107 444.985 C 118.107 450.416,118.323 450.021,115.355 450.005 C 113.462 449.994,112.580 449.660,111.856 448.679 C 110.711 447.129,111.375 436.420,112.790 433.609 C 113.799 431.605,115.475 430.594,116.701 431.251 M137.532 432.122 C 139.295 434.012,140.771 439.733,140.340 443.010 C 140.207 444.023,140.059 447.195,140.010 450.059 L 139.923 455.266 139.021 455.707 C 135.676 457.343,130.105 456.402,128.833 453.986 C 127.756 451.941,128.160 441.377,129.490 436.805 C 130.886 432.007,135.124 429.539,137.532 432.122 M266.954 431.702 C 270.241 433.378,271.603 437.550,271.865 446.746 C 272.031 452.551,271.904 453.464,270.748 454.781 C 269.083 456.677,263.213 457.078,260.651 455.471 C 260.126 455.142,260.118 455.062,260.118 450.225 C 260.118 447.523,260.005 444.412,259.867 443.311 C 259.338 439.087,261.270 432.554,263.407 431.347 C 264.180 430.910,265.701 431.062,266.954 431.702 M285.920 431.718 C 287.617 432.927,288.415 435.573,288.775 441.183 C 289.260 448.758,288.717 449.984,284.870 450.005 C 281.973 450.021,282.222 450.534,282.055 444.196 C 281.976 441.172,281.793 438.219,281.648 437.633 C 281.205 435.833,282.322 431.960,283.488 431.253 C 284.036 430.921,285.082 431.121,285.920 431.718 M116.511 451.374 C 117.832 451.741,118.176 452.427,118.012 454.369 C 117.937 455.253,117.781 457.627,117.665 459.645 C 117.465 463.132,117.307 463.922,116.328 466.338 C 114.893 469.880,112.299 463.778,112.024 456.213 C 111.848 451.361,112.793 450.341,116.511 451.374 M286.017 451.456 C 287.521 452.085,287.742 456.033,286.589 461.646 C 284.870 470.017,281.991 468.518,281.381 458.935 C 280.901 451.384,280.946 451.260,284.209 451.156 C 284.766 451.139,285.580 451.274,286.017 451.456 M124.765 454.994 C 125.793 455.668,126.267 457.305,125.621 457.954 C 125.403 458.173,125.341 459.292,125.383 462.203 C 125.496 469.866,123.349 474.773,121.248 471.656 C 119.416 468.938,117.897 457.926,119.053 455.745 C 119.749 454.433,123.213 453.977,124.765 454.994 M279.788 455.335 C 281.578 457.338,279.797 470.137,277.431 472.277 C 276.350 473.255,275.425 472.228,274.473 468.994 C 273.845 466.860,273.803 466.433,273.820 462.367 C 273.832 459.392,273.752 458.194,273.514 457.769 C 272.077 455.200,277.713 453.013,279.788 455.335 M131.907 457.120 C 134.660 457.734,134.725 457.943,134.433 465.325 C 133.856 479.893,129.752 481.676,127.079 468.521 C 125.766 462.064,126.324 457.435,128.486 456.839 C 129.425 456.581,129.528 456.589,131.907 457.120 M271.632 457.261 C 274.666 459.110,271.369 477.396,268.002 477.396 C 266.161 477.396,264.615 470.864,264.616 463.086 C 264.616 458.033,264.739 457.758,267.183 457.353 C 268.140 457.195,269.046 457.015,269.195 456.954 C 269.823 456.696,270.937 456.837,271.632 457.261 M140.844 458.943 C 141.096 459.078,141.302 459.337,141.302 459.518 C 141.302 460.137,142.981 463.075,143.836 463.953 L 144.689 464.829 144.767 468.332 C 144.946 476.432,142.163 482.691,139.361 480.487 C 136.215 478.012,134.128 461.768,136.684 459.647 C 137.530 458.945,140.051 458.519,140.844 458.943 M261.722 459.328 C 263.773 460.059,264.221 463.458,263.200 470.533 C 261.722 480.778,258.361 484.170,255.928 477.870 C 254.935 475.299,254.877 474.950,255.153 473.225 C 255.295 472.331,255.442 470.055,255.479 468.167 L 255.546 464.734 256.386 463.857 C 257.243 462.962,258.306 461.243,258.590 460.293 C 259.083 458.639,259.460 458.523,261.722 459.328 M153.018 462.509 C 155.516 463.190,155.784 464.000,155.496 469.982 C 155.203 476.056,154.863 478.099,153.594 481.420 C 150.814 488.694,146.382 481.529,145.872 468.935 L 145.725 465.325 146.295 465.320 C 147.246 465.312,148.700 464.494,149.813 463.341 C 150.948 462.166,151.362 462.058,153.018 462.509 M250.657 463.557 C 251.926 464.841,253.337 465.526,254.108 465.230 C 254.520 465.072,254.571 469.322,254.195 472.432 C 252.141 489.425,245.538 487.727,244.762 470.006 C 244.505 464.147,244.729 463.410,247.019 462.594 C 248.726 461.985,249.240 462.121,250.657 463.557 M160.069 465.328 C 160.685 465.600,162.217 465.921,163.655 466.078 C 166.730 466.414,166.520 465.950,166.476 472.308 C 166.339 491.882,158.555 490.791,156.679 470.934 C 156.208 465.942,157.315 464.110,160.069 465.328 M242.832 465.553 C 243.941 466.741,243.999 469.364,243.045 475.241 C 240.370 491.714,233.900 489.505,233.763 472.071 C 233.715 465.994,233.515 466.423,236.561 466.069 C 237.931 465.910,239.505 465.579,240.059 465.333 C 241.491 464.696,242.075 464.743,242.832 465.553 M201.426 465.576 C 205.866 466.130,206.154 466.661,206.154 474.310 C 206.154 483.646,205.105 487.772,202.230 489.751 C 197.719 492.855,195.097 489.405,193.970 478.886 C 192.871 468.627,193.572 466.204,197.820 465.581 C 198.563 465.472,199.228 465.370,199.296 465.354 C 199.365 465.338,200.323 465.438,201.426 465.576 M176.718 465.831 C 177.314 465.981,178.137 466.431,178.579 466.847 L 179.370 467.594 179.247 469.477 C 179.180 470.513,179.235 473.099,179.371 475.222 C 179.875 483.134,177.507 490.111,174.568 489.373 C 170.201 488.277,165.607 469.692,168.954 466.663 C 170.101 465.625,174.168 465.189,176.718 465.831 M229.699 465.826 C 230.233 465.975,231.040 466.488,231.566 467.013 L 232.492 467.939 232.354 471.189 C 231.869 482.671,227.096 492.287,223.684 488.656 C 221.653 486.494,220.780 481.869,220.912 473.973 L 221.018 467.574 221.730 466.833 C 222.856 465.661,227.150 465.119,229.699 465.826 M184.852 467.245 C 185.959 467.377,188.040 467.413,189.477 467.327 C 192.845 467.123,192.570 466.552,192.740 474.104 C 192.939 482.995,192.195 486.542,189.584 489.157 C 184.155 494.594,180.382 487.457,180.361 471.716 C 180.356 467.572,180.713 466.564,182.084 466.849 C 182.500 466.935,183.746 467.113,184.852 467.245 M219.223 467.160 C 220.009 468.060,220.190 469.320,220.027 472.766 C 219.331 487.445,217.131 492.523,212.417 490.328 C 208.729 488.610,207.262 484.013,207.234 474.083 C 207.221 469.546,207.277 468.652,207.612 468.047 L 208.004 467.337 212.227 467.298 C 214.549 467.276,216.822 467.154,217.278 467.026 C 218.508 466.681,218.824 466.703,219.223 467.160 " stroke="none" fill="#0b0b0b" fill-rule="evenodd"></path><path id="path1" d="M0.036 83.728 C 0.057 129.778,0.152 165.964,0.248 164.142 C 0.688 155.796,1.956 146.755,4.138 136.409 C 13.646 91.314,41.795 52.798,82.249 29.532 C 92.886 23.414,104.380 18.161,115.503 14.334 C 117.260 13.729,119.284 13.031,120.000 12.782 C 121.207 12.362,128.515 10.145,129.586 9.873 C 129.846 9.807,131.071 9.474,132.308 9.133 C 148.791 4.588,167.144 1.799,190.769 0.248 C 192.266 0.150,149.956 0.054,96.746 0.035 L 0.000 0.000 0.036 83.728 M208.994 0.261 C 258.880 3.517,294.004 13.938,326.036 34.987 C 329.713 37.404,330.458 37.925,334.199 40.698 C 372.804 69.303,395.727 112.054,399.059 161.657 C 400.529 183.537,397.537 221.958,392.064 251.479 C 391.871 252.521,391.555 254.225,391.362 255.266 C 390.937 257.564,389.871 262.956,389.584 264.260 C 389.470 264.781,389.214 265.953,389.017 266.864 C 388.819 267.775,387.912 271.769,387.001 275.740 C 382.370 295.924,382.180 298.143,384.389 306.272 C 384.654 307.249,385.191 309.260,385.581 310.743 C 385.972 312.226,386.392 313.627,386.515 313.857 C 391.731 323.604,394.766 341.651,393.040 352.663 C 389.633 374.413,375.397 388.383,353.475 391.490 C 351.277 391.801,351.686 391.240,349.948 396.331 C 347.375 403.870,345.367 412.621,342.968 426.746 C 341.001 438.332,339.927 445.646,336.553 470.414 C 333.281 494.438,321.271 514.058,304.615 522.588 C 298.530 525.705,296.920 527.010,286.509 537.269 C 270.610 552.935,259.217 560.120,243.195 564.585 C 238.032 566.024,228.844 567.622,224.260 567.878 C 223.479 567.922,262.701 567.978,311.420 568.003 L 400.000 568.047 400.000 284.024 L 400.000 0.000 303.018 0.034 C 249.678 0.053,207.367 0.155,208.994 0.261 M191.598 6.892 C 167.020 8.329,149.736 10.998,130.533 16.322 C 127.191 17.248,117.275 20.482,114.675 21.494 C 114.024 21.747,112.639 22.278,111.598 22.674 C 98.202 27.767,82.781 36.224,70.769 45.063 C 68.209 46.947,62.228 51.701,60.917 52.893 C 60.770 53.027,59.811 53.872,58.786 54.772 C 47.538 64.650,36.831 77.621,28.289 91.716 C 24.232 98.413,19.230 109.237,16.244 117.784 C 7.654 142.375,4.944 167.406,7.573 197.870 C 9.522 220.452,11.475 236.125,14.121 250.414 C 14.446 252.172,14.860 254.408,15.040 255.385 C 15.597 258.403,17.567 267.630,18.600 272.055 C 20.851 281.701,21.410 284.176,21.797 286.221 C 22.176 288.220,22.315 287.981,22.929 284.260 C 25.910 266.204,25.955 244.012,23.056 220.626 C 22.736 218.046,22.736 216.796,23.055 217.777 C 23.226 218.303,24.786 224.810,25.177 226.627 C 25.373 227.538,25.696 229.030,25.895 229.941 C 32.715 261.206,31.037 291.968,21.130 317.278 C 11.503 341.873,13.935 362.342,27.999 375.087 C 35.941 382.284,46.101 385.152,63.787 385.189 C 76.574 385.216,80.550 384.385,93.136 379.057 C 103.616 374.620,109.339 373.561,117.581 374.532 C 120.645 374.893,121.242 375.148,119.024 375.148 C 114.371 375.148,107.791 376.515,103.314 378.412 C 99.071 380.209,99.338 379.943,100.331 381.386 C 103.591 386.124,106.887 397.317,108.392 408.757 C 108.503 409.604,108.917 412.533,109.311 415.266 C 109.706 418.000,110.250 421.888,110.521 423.905 C 111.705 432.727,111.753 432.963,112.200 432.241 C 114.137 429.121,117.274 429.090,118.755 432.177 C 119.425 433.573,119.455 433.600,119.713 433.035 C 120.164 432.043,121.729 430.480,122.722 430.027 C 125.266 428.869,127.027 430.211,128.173 434.182 L 128.578 435.583 129.143 434.419 C 132.410 427.699,139.334 428.818,140.720 436.290 C 140.925 437.396,141.099 437.230,141.726 435.334 C 143.780 429.118,150.228 426.417,153.495 430.404 C 154.511 431.644,155.595 434.173,156.128 436.549 C 156.652 438.883,156.791 439.035,157.115 437.632 C 158.443 431.879,163.680 427.591,168.086 428.648 C 171.090 429.369,173.431 433.724,174.601 440.769 C 175.006 443.212,175.246 443.356,175.505 441.313 C 176.353 434.628,180.569 427.621,185.106 425.354 C 191.089 422.365,196.548 429.513,198.702 443.156 C 198.810 443.840,198.934 444.029,199.205 443.925 C 199.403 443.849,199.958 443.787,200.438 443.787 L 201.310 443.787 201.862 441.124 C 205.089 425.566,211.289 420.680,218.508 428.008 C 221.536 431.083,223.677 435.656,224.650 441.124 C 225.012 443.159,225.224 443.287,225.440 441.598 C 226.483 433.420,229.453 428.521,233.346 428.556 C 237.857 428.596,241.457 431.981,243.123 437.751 L 243.465 438.935 243.764 437.633 C 245.349 430.725,247.757 427.931,251.522 428.627 C 254.872 429.246,258.014 432.646,258.902 436.614 L 259.103 437.515 259.274 436.805 C 260.551 431.473,262.970 429.126,266.154 430.128 C 268.257 430.789,269.769 432.094,270.960 434.274 L 271.646 435.530 272.058 434.037 C 273.520 428.732,277.314 428.069,280.242 432.608 C 280.889 433.611,280.894 433.614,281.048 433.002 C 281.979 429.292,285.951 428.917,288.067 432.339 L 288.626 433.244 288.791 432.303 C 288.946 431.421,289.247 429.225,290.412 420.473 C 290.672 418.521,291.039 415.911,291.226 414.675 C 291.414 413.438,291.743 411.201,291.958 409.704 C 294.043 395.196,296.548 386.867,300.772 380.413 C 301.838 378.783,288.824 375.148,281.920 375.148 C 279.665 375.148,280.321 374.891,283.483 374.535 C 288.741 373.944,292.762 374.192,297.751 375.415 C 300.524 376.094,302.419 376.793,311.006 380.304 C 321.172 384.461,325.188 385.212,337.160 385.195 C 352.250 385.173,361.210 383.272,368.449 378.555 C 386.285 366.936,390.564 344.631,380.114 317.751 C 375.599 306.136,373.185 295.998,371.662 282.249 C 371.061 276.825,371.065 258.978,371.668 253.136 C 372.662 243.504,374.234 233.657,375.974 226.154 C 376.932 222.023,378.046 217.623,378.162 217.515 C 378.315 217.372,378.091 220.167,377.639 224.024 C 375.267 244.283,375.308 266.958,377.744 281.657 C 378.201 284.412,378.207 284.409,378.904 281.065 C 379.176 279.763,380.407 274.118,381.641 268.521 C 386.508 246.432,387.598 240.016,390.043 219.053 C 394.644 179.594,393.843 154.716,387.185 130.296 C 371.487 72.718,328.990 32.505,266.036 15.660 C 260.004 14.046,253.610 12.557,249.586 11.828 C 248.935 11.710,247.231 11.398,245.799 11.134 C 243.454 10.702,238.425 9.903,233.964 9.252 C 230.608 8.763,221.512 7.837,216.568 7.481 C 204.211 6.591,198.888 6.465,191.598 6.892 M0.048 375.562 L 0.000 568.047 89.763 568.011 C 139.133 567.991,178.036 567.893,176.213 567.794 C 156.922 566.745,140.168 560.303,124.688 547.983 C 122.642 546.355,118.719 542.676,113.491 537.482 C 103.008 527.067,101.944 526.192,95.976 523.075 C 87.096 518.437,80.658 512.381,74.329 502.710 C 67.660 492.519,64.596 482.719,62.233 464.024 C 62.101 462.982,61.894 461.491,61.772 460.710 C 61.651 459.929,61.334 457.692,61.068 455.740 C 59.726 445.867,58.837 439.756,57.745 432.899 C 57.151 429.170,56.975 428.168,55.031 417.515 C 53.407 408.612,51.152 399.869,49.017 394.204 C 48.484 392.789,48.047 391.604,48.047 391.570 C 48.047 391.536,47.541 391.442,46.923 391.360 C 17.177 387.446,0.967 359.285,9.865 326.982 C 10.188 325.811,10.539 324.533,10.645 324.142 C 10.751 323.751,11.163 322.473,11.561 321.302 C 11.959 320.130,12.465 318.320,12.686 317.278 C 12.907 316.237,13.839 312.349,14.758 308.639 L 16.428 301.893 16.423 297.515 C 16.417 292.680,16.375 292.389,14.321 283.077 C 14.134 282.231,13.611 279.834,13.158 277.751 C 12.705 275.669,11.961 272.260,11.504 270.178 C 9.193 259.637,7.250 249.728,6.168 242.959 C 5.898 241.266,5.574 239.296,5.449 238.580 C 5.324 237.864,5.114 236.426,4.983 235.385 C 4.851 234.343,4.578 232.266,4.376 230.769 C 2.688 218.273,0.442 193.938,0.160 185.089 C 0.125 183.982,0.075 269.695,0.048 375.562 M123.697 234.048 C 150.468 238.188,163.989 255.495,159.503 279.882 C 155.344 302.489,135.916 319.679,114.438 319.755 C 97.732 319.815,79.198 307.167,70.861 290.018 C 62.910 273.663,64.912 255.067,75.687 245.188 C 82.900 238.575,91.803 235.040,105.089 233.516 C 107.698 233.216,120.730 233.589,123.697 234.048 M299.408 234.035 C 319.952 237.309,332.014 248.016,334.100 264.830 C 337.547 292.620,310.118 321.904,282.830 319.567 C 258.834 317.512,240.156 296.324,240.125 271.124 C 240.099 249.653,255.079 235.855,280.947 233.525 C 284.149 233.237,296.547 233.579,299.408 234.035 M204.530 305.861 C 212.820 308.870,220.219 319.383,225.806 336.095 C 231.145 352.059,233.024 369.336,230.056 375.154 C 225.921 383.260,209.207 384.036,201.786 376.467 L 200.378 375.030 198.943 376.466 C 191.294 384.124,174.839 383.237,170.856 374.952 C 166.321 365.521,174.016 333.369,184.716 317.041 C 191.162 307.204,197.844 303.434,204.530 305.861 M326.036 391.251 C 313.977 392.622,305.210 404.695,298.454 429.231 C 298.024 430.794,297.160 434.282,293.589 448.876 C 291.249 458.437,289.810 462.314,287.874 464.269 C 287.363 464.785,286.654 465.747,286.299 466.407 C 284.920 468.963,282.550 468.949,281.620 466.379 C 281.222 465.277,281.032 465.351,280.832 466.686 C 279.741 473.984,275.552 476.240,273.708 470.524 L 273.214 468.994 272.809 470.769 C 270.843 479.389,266.799 481.180,264.734 474.344 C 264.435 473.354,264.138 472.704,264.074 472.899 C 264.010 473.095,263.729 474.206,263.449 475.370 C 261.642 482.884,257.516 484.533,255.010 478.742 L 254.516 477.603 254.094 479.162 C 251.691 488.042,246.917 487.690,244.616 478.462 L 244.085 476.331 243.802 477.751 C 241.382 489.917,235.635 491.207,233.255 480.121 L 232.747 477.756 232.449 479.271 C 230.165 490.877,224.043 494.283,220.964 485.661 L 220.203 483.528 219.756 485.325 C 219.137 487.811,217.842 490.328,216.723 491.224 C 213.677 493.661,208.105 490.067,207.210 485.089 C 206.997 483.901,206.645 483.195,206.634 483.934 C 206.593 486.810,203.904 490.586,201.151 491.632 C 197.686 492.948,195.485 491.159,193.974 485.799 L 193.441 483.905 193.166 484.970 C 192.387 487.990,190.519 490.404,188.131 491.476 C 184.341 493.177,181.892 490.989,180.327 484.502 L 180.071 483.442 179.540 485.094 C 176.504 494.539,169.557 490.644,167.671 478.439 L 167.492 477.278 167.192 479.290 C 165.517 490.527,159.734 490.579,156.906 479.381 C 156.154 476.402,155.976 475.962,155.976 477.077 C 155.976 479.048,153.793 484.247,152.620 485.068 C 149.982 486.916,147.163 483.753,145.763 477.374 C 145.379 475.622,145.209 475.525,144.848 476.851 C 142.605 485.093,137.005 483.370,135.362 473.933 L 135.080 472.316 134.543 474.124 C 132.520 480.926,128.586 479.615,126.539 471.457 C 125.951 469.113,125.829 469.075,125.313 471.076 C 123.937 476.410,119.731 473.749,118.336 466.663 L 118.063 465.278 117.505 466.484 C 116.352 468.973,114.234 468.930,112.847 466.391 C 112.491 465.740,112.198 465.040,112.195 464.835 C 112.192 464.630,111.723 463.504,111.153 462.333 C 109.676 459.300,108.666 456.124,106.981 449.231 C 100.432 422.422,99.020 417.817,94.643 408.994 C 87.883 395.369,80.103 390.119,68.876 391.607 C 67.275 391.820,63.936 391.989,60.770 392.020 C 57.809 392.048,55.386 392.140,55.385 392.224 C 55.385 392.308,55.805 393.640,56.318 395.183 C 58.620 402.096,60.854 411.873,63.099 424.852 C 63.921 429.605,64.113 430.800,65.065 437.041 C 65.529 440.080,67.112 451.158,67.805 456.213 C 68.002 457.645,68.381 460.414,68.649 462.367 C 70.709 477.398,72.246 483.857,75.424 490.849 C 75.858 491.805,76.213 492.627,76.213 492.675 C 76.213 492.970,79.116 498.007,80.419 499.975 C 85.659 507.883,91.471 513.189,99.635 517.518 C 105.337 520.541,106.889 521.809,116.568 531.358 C 127.998 542.634,132.961 546.606,141.680 551.457 C 155.849 559.340,176.843 563.138,193.846 560.895 C 196.764 560.510,201.978 560.511,205.562 560.898 C 223.208 562.803,240.049 560.072,255.146 552.857 C 264.410 548.431,269.921 544.242,281.538 532.803 C 292.805 521.709,294.213 520.554,300.539 517.233 C 309.159 512.708,315.820 506.057,321.356 496.450 C 326.368 487.751,328.699 479.824,330.647 464.852 C 330.909 462.834,331.285 460.065,331.481 458.698 C 331.677 457.331,332.214 453.497,332.673 450.178 C 333.132 446.858,333.661 443.130,333.847 441.893 C 335.230 432.737,335.521 430.876,336.219 426.746 C 338.764 411.684,340.885 402.299,343.472 394.653 L 344.279 392.269 338.234 391.991 C 334.910 391.839,331.657 391.617,331.006 391.499 C 329.119 391.155,327.562 391.077,326.036 391.251 M187.101 425.970 C 182.048 427.202,177.723 434.386,176.445 443.669 C 175.894 447.668,176.039 459.361,176.662 461.272 C 177.895 465.049,182.735 466.740,190.308 466.039 C 197.315 465.390,199.193 463.617,198.962 457.870 C 198.178 438.347,193.038 424.523,187.101 425.970 M211.036 426.139 C 206.295 427.869,202.914 437.410,201.542 452.930 C 200.596 463.627,201.658 465.288,209.929 466.043 C 217.765 466.758,222.230 465.128,223.563 461.065 C 224.247 458.980,224.199 445.399,223.494 441.893 C 221.442 431.675,215.714 424.432,211.036 426.139 M147.574 430.380 C 142.913 432.557,141.449 437.077,141.431 449.349 C 141.418 457.645,141.891 459.863,144.275 462.697 C 146.150 464.924,146.736 464.701,151.538 459.932 L 155.503 455.995 155.510 451.370 C 155.514 448.827,155.618 445.972,155.741 445.027 C 156.120 442.109,155.069 436.339,153.566 433.077 C 152.121 429.941,150.283 429.115,147.574 430.380 M164.312 430.327 C 159.194 432.294,157.022 438.604,156.754 452.284 C 156.616 459.339,156.743 460.564,157.777 462.159 C 160.365 466.151,171.373 466.139,173.838 462.142 L 174.556 460.978 174.523 456.333 C 174.383 436.720,170.882 427.803,164.312 430.327 M231.579 430.269 C 227.940 432.488,225.566 443.293,225.563 457.649 C 225.561 463.003,227.308 464.709,233.116 465.024 C 238.318 465.307,241.340 464.183,242.804 461.420 L 243.432 460.237 243.398 453.254 C 243.355 444.379,242.566 438.886,240.792 435.102 C 239.001 431.285,234.116 428.722,231.579 430.269 M248.606 430.345 C 247.052 431.450,245.956 433.832,245.051 438.077 C 244.380 441.223,244.336 442.436,244.608 450.342 L 244.805 456.069 248.678 459.928 C 252.871 464.106,253.340 464.415,254.589 463.819 C 256.081 463.108,258.101 459.335,258.687 456.168 C 259.559 451.451,258.628 439.384,257.077 435.304 C 255.511 431.181,251.080 428.588,248.606 430.345 M122.553 431.593 C 120.359 433.095,119.423 436.754,119.160 444.852 C 119.009 449.520,119.296 450.668,120.828 451.530 C 121.986 452.182,125.263 452.299,126.366 451.729 L 127.028 451.386 127.185 446.344 C 127.272 443.571,127.432 440.789,127.542 440.162 C 127.882 438.210,126.911 433.508,125.839 431.911 C 125.122 430.845,123.828 430.719,122.553 431.593 M274.739 431.420 C 272.967 433.436,272.275 437.626,272.860 442.806 C 273.012 444.154,273.136 446.618,273.136 448.280 C 273.136 451.974,273.095 451.920,276.038 452.036 C 278.680 452.141,279.806 451.722,280.491 450.380 C 281.459 448.483,280.935 437.893,279.710 434.596 C 278.686 431.840,275.922 430.074,274.739 431.420 M115.030 431.409 C 113.744 431.877,112.678 433.609,112.071 436.213 C 111.521 438.577,111.294 447.401,111.762 448.261 C 112.479 449.582,114.413 450.194,116.756 449.842 L 117.817 449.683 117.930 444.664 C 117.992 441.904,118.179 438.839,118.347 437.853 C 118.982 434.118,117.184 430.625,115.030 431.409 M134.084 431.417 C 130.782 432.252,128.887 436.699,128.556 444.391 C 128.095 455.086,128.693 456.196,134.911 456.195 C 137.484 456.194,137.997 456.127,138.843 455.683 L 139.817 455.171 140.001 449.065 C 140.261 440.467,140.238 439.673,139.664 437.288 C 138.485 432.394,136.883 430.709,134.084 431.417 M263.014 431.824 C 262.164 432.540,261.229 434.573,260.546 437.193 C 259.964 439.425,259.940 440.355,260.233 449.303 L 260.424 455.174 261.396 455.690 C 263.979 457.062,269.853 456.178,271.061 454.236 C 272.417 452.056,271.620 438.731,269.918 435.125 C 268.414 431.938,264.884 430.251,263.014 431.824 M283.110 431.846 C 281.999 433.258,281.540 435.593,281.880 438.105 C 282.048 439.343,282.230 442.432,282.285 444.970 L 282.386 449.586 283.145 449.788 C 285.355 450.377,287.822 449.587,288.453 448.088 C 289.126 446.489,288.650 437.934,287.707 434.690 C 286.908 431.940,284.303 430.329,283.110 431.846 M112.805 451.872 C 111.938 452.618,111.803 454.263,112.271 458.375 C 113.534 469.475,117.064 469.840,117.692 458.935 C 118.041 452.885,118.030 452.600,117.438 452.008 C 116.617 451.187,113.701 451.102,112.805 451.872 M282.332 451.616 C 281.471 451.948,281.104 452.952,281.282 454.485 C 281.363 455.175,281.520 457.391,281.633 459.408 C 281.992 465.846,283.656 468.840,285.196 465.820 C 286.803 462.670,287.747 453.089,286.567 451.910 C 286.077 451.419,283.333 451.229,282.332 451.616 M120.005 454.979 C 118.659 455.660,118.446 460.238,119.502 465.799 C 121.505 476.343,125.180 473.804,125.327 461.775 C 125.351 459.757,125.451 457.719,125.549 457.246 C 125.970 455.199,122.430 453.751,120.005 454.979 M275.030 454.842 C 273.718 455.321,273.159 456.708,273.728 458.070 C 274.026 458.783,274.087 459.747,274.035 462.912 C 273.965 467.182,274.196 468.592,275.389 471.200 C 277.279 475.331,280.181 468.262,280.292 459.258 L 280.331 456.035 279.570 455.355 C 278.817 454.682,276.258 454.393,275.030 454.842 M128.111 457.143 C 126.293 457.964,126.044 459.680,126.853 465.799 C 127.942 474.032,130.175 478.667,132.071 476.632 C 133.878 474.692,135.341 461.085,134.023 458.468 C 133.433 457.294,129.652 456.447,128.111 457.143 M268.876 457.172 C 268.290 457.339,267.366 457.485,266.822 457.496 C 264.812 457.534,264.581 458.410,264.846 464.970 C 265.416 479.029,269.323 481.488,271.804 469.349 C 273.211 462.462,272.955 457.909,271.116 457.141 C 270.208 456.762,270.311 456.760,268.876 457.172 M137.592 459.394 C 135.868 460.177,135.734 460.596,135.776 465.081 C 135.875 475.684,139.285 483.713,142.087 479.939 C 143.719 477.741,144.700 473.331,144.635 468.485 L 144.587 464.899 143.668 463.933 C 143.163 463.402,142.300 462.060,141.750 460.951 L 140.751 458.935 139.665 458.940 C 139.068 458.943,138.136 459.147,137.592 459.394 M259.172 459.226 C 259.172 459.924,257.489 462.928,256.564 463.882 L 255.621 464.853 255.621 467.706 C 255.621 469.276,255.500 471.550,255.351 472.759 C 254.814 477.130,257.270 481.931,259.351 480.576 C 263.097 478.138,265.147 460.934,261.869 459.440 C 260.775 458.942,259.172 458.814,259.172 459.226 M150.285 463.105 C 148.945 464.514,147.693 465.325,146.859 465.325 C 145.849 465.325,145.737 466.022,146.059 470.277 C 146.812 480.200,149.838 486.497,152.374 483.420 C 154.679 480.624,156.600 466.564,155.025 464.016 C 154.021 462.393,151.435 461.895,150.285 463.105 M247.515 462.583 C 245.040 463.249,244.721 464.008,244.855 468.908 C 245.099 477.797,246.959 484.260,249.275 484.260 C 251.721 484.260,254.438 475.342,254.438 467.316 L 254.438 465.325 253.527 465.325 C 252.531 465.325,251.389 464.616,249.954 463.106 C 249.047 462.153,249.084 462.161,247.515 462.583 M158.045 465.237 C 156.524 466.034,156.324 469.113,157.394 475.266 C 160.280 491.868,166.479 489.135,166.367 471.311 C 166.334 466.133,166.476 466.424,163.895 466.236 C 162.582 466.140,161.177 465.862,160.204 465.505 C 158.841 465.006,158.554 464.971,158.045 465.237 M241.053 465.060 C 240.557 465.518,238.112 466.122,236.223 466.252 L 234.221 466.391 234.012 467.337 C 233.897 467.858,233.859 470.361,233.927 472.899 C 234.254 485.096,237.512 490.146,240.660 483.334 C 242.637 479.054,244.194 469.295,243.321 466.651 C 242.950 465.526,241.585 464.568,241.053 465.060 M170.769 465.927 C 167.955 466.695,167.401 469.148,168.533 475.832 C 171.071 490.809,176.793 493.963,179.046 481.627 C 179.300 480.239,179.344 478.397,179.237 473.648 L 179.098 467.474 178.484 466.885 C 177.248 465.701,173.365 465.219,170.769 465.927 M197.278 465.788 C 194.068 466.588,193.846 467.030,193.846 472.608 C 193.846 485.810,196.630 492.500,201.161 490.189 C 204.927 488.268,206.187 484.074,206.044 473.942 C 205.961 468.037,205.849 467.457,204.634 466.661 C 203.232 465.743,199.321 465.278,197.278 465.788 M224.024 465.878 C 221.043 466.649,221.105 466.470,221.037 474.438 C 220.881 492.828,227.840 494.845,231.500 477.470 C 232.202 474.135,232.398 468.546,231.850 467.486 C 231.044 465.927,227.027 465.102,224.024 465.878 M180.949 467.538 C 180.358 468.439,180.266 470.383,180.574 475.396 C 181.365 488.242,183.761 492.681,188.395 489.882 C 190.517 488.600,191.437 486.900,192.318 482.635 C 192.719 480.692,192.615 468.034,192.195 467.606 C 192.084 467.494,190.040 467.377,187.653 467.347 C 185.267 467.317,182.872 467.210,182.331 467.110 C 181.438 466.943,181.313 466.982,180.949 467.538 M216.568 467.242 C 215.982 467.352,213.864 467.421,211.860 467.395 C 207.077 467.333,207.455 466.749,207.456 474.188 C 207.457 485.501,209.595 490.651,214.292 490.651 C 217.616 490.651,219.889 482.932,219.883 471.665 C 219.881 467.056,219.594 466.673,216.568 467.242 M196.450 567.376 C 195.734 567.496,193.391 567.681,191.243 567.786 C 188.243 567.932,190.053 567.976,199.053 567.977 C 206.580 567.977,209.838 567.913,208.166 567.796 C 206.734 567.697,204.870 567.500,204.024 567.360 C 202.205 567.058,198.286 567.066,196.450 567.376 " stroke="none" fill="#fbfbfb" fill-rule="evenodd"></path><path id="path2" d="M196.509 0.177 C 198.299 0.217,201.228 0.217,203.018 0.177 C 204.808 0.137,203.343 0.104,199.763 0.104 C 196.183 0.104,194.719 0.137,196.509 0.177 M189.882 0.406 C 190.240 0.460,190.825 0.460,191.183 0.406 C 191.541 0.352,191.249 0.308,190.533 0.308 C 189.817 0.308,189.524 0.352,189.882 0.406 M208.583 0.407 C 208.943 0.461,209.475 0.459,209.767 0.403 C 210.058 0.347,209.763 0.303,209.112 0.304 C 208.462 0.306,208.223 0.352,208.583 0.407 M219.467 1.110 C 219.695 1.169,220.068 1.169,220.296 1.110 C 220.524 1.050,220.337 1.002,219.882 1.002 C 219.426 1.002,219.240 1.050,219.467 1.110 M189.412 7.034 C 189.771 7.088,190.304 7.087,190.595 7.031 C 190.886 6.974,190.592 6.930,189.941 6.932 C 189.290 6.933,189.052 6.979,189.412 7.034 M209.057 7.034 C 209.416 7.088,209.949 7.087,210.240 7.031 C 210.531 6.974,210.237 6.930,209.586 6.932 C 208.935 6.933,208.697 6.979,209.057 7.034 M57.145 56.154 L 56.450 56.923 57.219 56.228 C 57.936 55.580,58.097 55.385,57.914 55.385 C 57.873 55.385,57.527 55.731,57.145 56.154 M342.012 55.459 C 342.012 55.499,342.358 55.846,342.781 56.228 L 343.550 56.923 342.855 56.154 C 342.207 55.437,342.012 55.276,342.012 55.459 M51.593 61.479 L 49.349 63.787 51.657 61.543 C 52.926 60.309,53.964 59.271,53.964 59.235 C 53.964 59.064,53.677 59.336,51.593 61.479 M347.337 60.592 C 348.110 61.373,348.796 62.012,348.861 62.012 C 348.926 62.012,348.347 61.373,347.574 60.592 C 346.801 59.811,346.115 59.172,346.050 59.172 C 345.985 59.172,346.564 59.811,347.337 60.592 M351.243 64.689 C 351.243 64.730,351.589 65.076,352.012 65.459 L 352.781 66.154 352.086 65.385 C 351.438 64.668,351.243 64.507,351.243 64.689 M398.871 160.473 C 398.871 160.929,398.920 161.115,398.980 160.888 C 399.039 160.660,399.039 160.287,398.980 160.059 C 398.920 159.831,398.871 160.018,398.871 160.473 M6.924 162.485 C 6.926 163.006,6.975 163.191,7.031 162.897 C 7.088 162.602,7.086 162.176,7.027 161.950 C 6.967 161.724,6.921 161.964,6.924 162.485 M0.292 162.840 C 0.292 163.296,0.340 163.482,0.400 163.254 C 0.459 163.027,0.459 162.654,0.400 162.426 C 0.340 162.198,0.292 162.385,0.292 162.840 M6.687 166.509 C 6.690 167.030,6.738 167.215,6.795 166.920 C 6.851 166.626,6.849 166.200,6.790 165.974 C 6.731 165.747,6.684 165.988,6.687 166.509 M0.060 168.166 C 0.062 168.686,0.111 168.872,0.167 168.577 C 0.224 168.283,0.222 167.857,0.163 167.630 C 0.103 167.404,0.057 167.645,0.060 168.166 M392.979 169.467 C 392.979 170.444,393.021 170.843,393.072 170.355 C 393.123 169.867,393.123 169.068,393.072 168.580 C 393.021 168.092,392.979 168.491,392.979 169.467 M399.363 170.296 C 399.365 171.077,399.409 171.368,399.461 170.943 C 399.514 170.517,399.513 169.878,399.459 169.522 C 399.405 169.167,399.362 169.515,399.363 170.296 M6.478 175.385 C 6.478 176.751,6.517 177.311,6.565 176.627 C 6.613 175.944,6.613 174.825,6.565 174.142 C 6.517 173.459,6.478 174.018,6.478 175.385 M392.982 180.118 C 392.982 181.225,393.023 181.678,393.073 181.124 C 393.123 180.571,393.123 179.666,393.073 179.112 C 393.023 178.559,392.982 179.012,392.982 180.118 M399.370 182.012 C 399.370 182.988,399.411 183.388,399.462 182.899 C 399.513 182.411,399.513 181.612,399.462 181.124 C 399.411 180.636,399.370 181.036,399.370 182.012 M0.060 182.367 C 0.062 182.888,0.111 183.073,0.167 182.778 C 0.224 182.484,0.222 182.058,0.163 181.832 C 0.103 181.605,0.057 181.846,0.060 182.367 M6.692 184.852 C 6.692 185.438,6.738 185.678,6.794 185.385 C 6.851 185.092,6.851 184.612,6.794 184.320 C 6.738 184.027,6.692 184.266,6.692 184.852 M0.304 188.047 C 0.306 188.698,0.352 188.936,0.407 188.577 C 0.461 188.217,0.459 187.684,0.403 187.393 C 0.347 187.102,0.303 187.396,0.304 188.047 M6.932 189.704 C 6.933 190.355,6.979 190.593,7.034 190.233 C 7.088 189.874,7.087 189.341,7.031 189.050 C 6.974 188.759,6.930 189.053,6.932 189.704 M398.881 193.136 C 398.881 193.722,398.927 193.962,398.984 193.669 C 399.040 193.376,399.040 192.896,398.984 192.604 C 398.927 192.311,398.881 192.550,398.881 193.136 M392.244 194.083 C 392.244 194.538,392.293 194.725,392.353 194.497 C 392.412 194.269,392.412 193.896,392.353 193.669 C 392.293 193.441,392.244 193.627,392.244 194.083 M1.002 198.343 C 1.002 198.799,1.050 198.985,1.110 198.757 C 1.169 198.530,1.169 198.157,1.110 197.929 C 1.050 197.701,1.002 197.888,1.002 198.343 M22.729 218.118 C 22.735 218.730,22.768 218.763,22.990 218.380 C 23.172 218.066,23.170 217.869,22.983 217.681 C 22.793 217.491,22.724 217.609,22.729 218.118 M106.216 233.540 C 106.510 233.597,106.936 233.595,107.163 233.535 C 107.389 233.476,107.148 233.430,106.627 233.432 C 106.107 233.435,105.921 233.484,106.216 233.540 M116.864 233.540 C 117.157 233.596,117.636 233.596,117.929 233.540 C 118.222 233.483,117.982 233.437,117.396 233.437 C 116.811 233.437,116.571 233.483,116.864 233.540 M282.308 233.540 C 282.601 233.596,283.080 233.596,283.373 233.540 C 283.666 233.483,283.426 233.437,282.840 233.437 C 282.254 233.437,282.015 233.483,282.308 233.540 M293.314 233.536 C 293.541 233.595,293.914 233.595,294.142 233.536 C 294.370 233.476,294.183 233.428,293.728 233.428 C 293.272 233.428,293.086 233.476,293.314 233.536 M24.434 235.266 C 24.434 235.722,24.482 235.908,24.542 235.680 C 24.601 235.453,24.601 235.080,24.542 234.852 C 24.482 234.624,24.434 234.811,24.434 235.266 M376.386 236.686 C 376.386 237.142,376.435 237.328,376.495 237.101 C 376.554 236.873,376.554 236.500,376.495 236.272 C 376.435 236.044,376.386 236.231,376.386 236.686 M375.913 245.207 C 375.913 245.663,375.962 245.849,376.021 245.621 C 376.081 245.393,376.081 245.021,376.021 244.793 C 375.962 244.565,375.913 244.751,375.913 245.207 M25.173 249.112 C 25.172 250.284,25.212 250.793,25.262 250.244 C 25.311 249.695,25.312 248.736,25.263 248.114 C 25.214 247.491,25.173 247.941,25.173 249.112 M375.707 254.675 C 375.707 255.911,375.747 256.417,375.795 255.799 C 375.844 255.180,375.844 254.169,375.795 253.550 C 375.747 252.932,375.707 253.438,375.707 254.675 M29.404 254.675 C 29.404 255.130,29.453 255.317,29.512 255.089 C 29.572 254.861,29.572 254.488,29.512 254.260 C 29.453 254.033,29.404 254.219,29.404 254.675 M25.173 260.237 C 25.172 261.408,25.212 261.917,25.262 261.368 C 25.311 260.819,25.312 259.860,25.263 259.238 C 25.214 258.616,25.173 259.065,25.173 260.237 M371.189 260.828 C 371.189 261.414,371.235 261.654,371.291 261.361 C 371.348 261.068,371.348 260.589,371.291 260.296 C 371.235 260.003,371.189 260.243,371.189 260.828 M29.893 263.905 C 29.893 264.621,29.938 264.914,29.992 264.556 C 30.046 264.198,30.046 263.612,29.992 263.254 C 29.938 262.896,29.893 263.189,29.893 263.905 M334.261 267.574 C 334.263 268.095,334.312 268.280,334.369 267.985 C 334.425 267.691,334.423 267.265,334.364 267.039 C 334.305 266.812,334.258 267.053,334.261 267.574 M160.316 271.006 C 160.316 271.982,160.358 272.382,160.409 271.893 C 160.460 271.405,160.460 270.607,160.409 270.118 C 160.358 269.630,160.316 270.030,160.316 271.006 M334.266 271.006 C 334.266 271.592,334.312 271.831,334.368 271.538 C 334.425 271.246,334.425 270.766,334.368 270.473 C 334.312 270.180,334.266 270.420,334.266 271.006 M29.887 272.189 C 29.887 272.775,29.933 273.015,29.990 272.722 C 30.046 272.429,30.046 271.950,29.990 271.657 C 29.933 271.364,29.887 271.604,29.887 272.189 M240.055 274.556 C 240.055 275.012,240.104 275.198,240.163 274.970 C 240.223 274.743,240.223 274.370,240.163 274.142 C 240.104 273.914,240.055 274.101,240.055 274.556 M371.189 275.266 C 371.189 275.852,371.235 276.092,371.291 275.799 C 371.348 275.506,371.348 275.027,371.291 274.734 C 371.235 274.441,371.189 274.680,371.189 275.266 M29.404 280.947 C 29.404 281.402,29.453 281.589,29.512 281.361 C 29.572 281.133,29.572 280.760,29.512 280.533 C 29.453 280.305,29.404 280.491,29.404 280.947 M79.527 302.796 C 79.527 302.837,79.873 303.183,80.296 303.565 L 81.065 304.260 80.370 303.491 C 79.722 302.774,79.527 302.613,79.527 302.796 M146.612 305.148 L 145.917 305.917 146.686 305.222 C 147.403 304.574,147.564 304.379,147.382 304.379 C 147.341 304.379,146.995 304.725,146.612 305.148 M82.249 305.562 C 82.757 306.083,83.226 306.509,83.291 306.509 C 83.356 306.509,82.994 306.083,82.485 305.562 C 81.977 305.041,81.507 304.615,81.442 304.615 C 81.377 304.615,81.740 305.041,82.249 305.562 M199.945 305.260 C 200.370 305.313,201.010 305.312,201.365 305.258 C 201.721 305.204,201.373 305.161,200.592 305.162 C 199.811 305.163,199.520 305.208,199.945 305.260 M189.930 310.355 L 188.994 311.361 190.000 310.425 C 190.935 309.555,191.115 309.349,190.936 309.349 C 190.897 309.349,190.444 309.802,189.930 310.355 M393.428 342.012 C 393.428 342.467,393.476 342.654,393.536 342.426 C 393.595 342.198,393.595 341.825,393.536 341.598 C 393.476 341.370,393.428 341.556,393.428 342.012 M15.224 344.142 C 15.224 344.988,15.267 345.334,15.319 344.911 C 15.372 344.488,15.372 343.796,15.319 343.373 C 15.267 342.950,15.224 343.296,15.224 344.142 M393.428 346.746 C 393.428 347.201,393.476 347.388,393.536 347.160 C 393.595 346.932,393.595 346.559,393.536 346.331 C 393.476 346.104,393.428 346.290,393.428 346.746 M24.852 372.145 C 24.852 372.186,25.198 372.532,25.621 372.914 L 26.391 373.609 25.695 372.840 C 25.047 372.123,24.852 371.962,24.852 372.145 M280.828 374.911 C 280.530 375.039,280.486 375.115,280.710 375.115 C 280.905 375.115,281.278 375.023,281.538 374.911 C 281.837 374.783,281.881 374.708,281.657 374.708 C 281.462 374.708,281.089 374.799,280.828 374.911 M183.614 381.710 C 184.039 381.763,184.678 381.762,185.034 381.708 C 185.389 381.654,185.041 381.610,184.260 381.612 C 183.479 381.613,183.188 381.657,183.614 381.710 M56.748 385.256 C 57.043 385.313,57.469 385.311,57.695 385.251 C 57.921 385.192,57.680 385.146,57.160 385.148 C 56.639 385.151,56.454 385.200,56.748 385.256 M343.491 385.252 C 343.719 385.311,344.092 385.311,344.320 385.252 C 344.547 385.192,344.361 385.144,343.905 385.144 C 343.450 385.144,343.263 385.192,343.491 385.252 M62.781 385.501 C 63.660 385.546,65.098 385.546,65.976 385.501 C 66.855 385.455,66.136 385.418,64.379 385.418 C 62.621 385.418,61.902 385.455,62.781 385.501 M334.960 385.501 C 335.833 385.546,337.324 385.546,338.274 385.501 C 339.223 385.456,338.509 385.419,336.686 385.419 C 334.864 385.418,334.087 385.455,334.960 385.501 M72.485 391.175 C 72.843 391.230,73.429 391.230,73.787 391.175 C 74.145 391.121,73.852 391.077,73.136 391.077 C 72.420 391.077,72.127 391.121,72.485 391.175 M334.260 391.879 C 334.488 391.939,334.861 391.939,335.089 391.879 C 335.317 391.820,335.130 391.771,334.675 391.771 C 334.219 391.771,334.033 391.820,334.260 391.879 M57.811 392.128 C 58.559 392.175,59.784 392.175,60.533 392.128 C 61.281 392.081,60.669 392.042,59.172 392.042 C 57.675 392.042,57.062 392.081,57.811 392.128 M340.660 392.128 C 341.413 392.175,342.584 392.175,343.263 392.127 C 343.942 392.079,343.325 392.041,341.893 392.041 C 340.462 392.042,339.906 392.081,340.660 392.128 M181.879 427.751 L 181.183 428.521 181.953 427.826 C 182.376 427.443,182.722 427.097,182.722 427.056 C 182.722 426.873,182.527 427.034,181.879 427.751 M149.408 428.566 C 149.636 428.625,150.009 428.625,150.237 428.566 C 150.464 428.506,150.278 428.457,149.822 428.457 C 149.367 428.457,149.180 428.506,149.408 428.566 M166.450 428.566 C 166.678 428.625,167.050 428.625,167.278 428.566 C 167.506 428.506,167.320 428.457,166.864 428.457 C 166.408 428.457,166.222 428.506,166.450 428.566 M232.959 428.566 C 233.186 428.625,233.559 428.625,233.787 428.566 C 234.015 428.506,233.828 428.457,233.373 428.457 C 232.917 428.457,232.731 428.506,232.959 428.566 M144.245 431.065 L 143.550 431.834 144.320 431.139 C 144.743 430.757,145.089 430.411,145.089 430.370 C 145.089 430.187,144.893 430.348,144.245 431.065 M117.925 441.657 C 117.925 442.112,117.973 442.299,118.033 442.071 C 118.093 441.843,118.093 441.470,118.033 441.243 C 117.973 441.015,117.925 441.201,117.925 441.657 M119.108 442.840 C 119.108 443.296,119.157 443.482,119.216 443.254 C 119.276 443.027,119.276 442.654,119.216 442.426 C 119.157 442.198,119.108 442.385,119.108 442.840 M282.225 445.680 C 282.225 447.698,282.262 448.524,282.306 447.515 C 282.350 446.506,282.350 444.855,282.306 443.846 C 282.262 442.837,282.225 443.663,282.225 445.680 M281.036 446.154 C 281.036 447.651,281.075 448.263,281.122 447.515 C 281.169 446.766,281.169 445.541,281.122 444.793 C 281.075 444.044,281.036 444.657,281.036 446.154 M199.707 443.954 C 200.001 444.011,200.427 444.009,200.654 443.950 C 200.880 443.890,200.639 443.844,200.118 443.847 C 199.598 443.849,199.412 443.898,199.707 443.954 M272.954 444.970 C 272.954 445.426,273.003 445.612,273.063 445.385 C 273.122 445.157,273.122 444.784,273.063 444.556 C 273.003 444.328,272.954 444.515,272.954 444.970 M128.364 446.154 C 128.364 447.130,128.405 447.530,128.456 447.041 C 128.508 446.553,128.508 445.754,128.456 445.266 C 128.405 444.778,128.364 445.178,128.364 446.154 M155.558 446.864 C 155.558 447.320,155.607 447.506,155.666 447.278 C 155.726 447.050,155.726 446.678,155.666 446.450 C 155.607 446.222,155.558 446.408,155.558 446.864 M260.178 446.982 C 260.181 447.503,260.229 447.688,260.286 447.394 C 260.342 447.099,260.340 446.673,260.281 446.447 C 260.222 446.221,260.175 446.462,260.178 446.982 M271.806 448.876 C 271.807 450.438,271.845 451.046,271.891 450.227 C 271.938 449.409,271.937 448.131,271.891 447.387 C 271.844 446.644,271.806 447.314,271.806 448.876 M141.162 450.533 C 141.162 452.746,141.197 453.683,141.241 452.615 C 141.285 451.548,141.285 449.737,141.241 448.592 C 141.198 447.446,141.162 448.320,141.162 450.533 M243.385 449.231 C 243.385 449.947,243.429 450.240,243.483 449.882 C 243.537 449.524,243.537 448.938,243.483 448.580 C 243.429 448.222,243.385 448.515,243.385 449.231 M128.368 450.296 C 128.367 451.467,128.407 451.977,128.457 451.427 C 128.507 450.878,128.507 449.919,128.458 449.297 C 128.409 448.675,128.369 449.124,128.368 450.296 M259.026 451.124 C 259.026 452.751,259.064 453.417,259.110 452.604 C 259.156 451.790,259.156 450.459,259.110 449.645 C 259.064 448.831,259.026 449.497,259.026 451.124 M175.946 451.124 C 175.946 452.491,175.985 453.050,176.032 452.367 C 176.080 451.683,176.080 450.565,176.032 449.882 C 175.985 449.198,175.946 449.757,175.946 451.124 M225.627 452.544 C 225.627 453.130,225.673 453.370,225.729 453.077 C 225.786 452.784,225.786 452.305,225.729 452.012 C 225.673 451.719,225.627 451.959,225.627 452.544 M123.254 452.238 C 123.547 452.294,124.027 452.294,124.320 452.238 C 124.612 452.182,124.373 452.135,123.787 452.135 C 123.201 452.135,122.962 452.182,123.254 452.238 M275.680 452.238 C 275.973 452.294,276.453 452.294,276.746 452.238 C 277.038 452.182,276.799 452.135,276.213 452.135 C 275.627 452.135,275.388 452.182,275.680 452.238 M174.498 453.846 C 174.500 454.367,174.549 454.552,174.605 454.258 C 174.662 453.963,174.660 453.537,174.600 453.311 C 174.541 453.085,174.495 453.325,174.498 453.846 M281.002 454.201 C 281.002 454.657,281.050 454.843,281.110 454.615 C 281.169 454.388,281.169 454.015,281.110 453.787 C 281.050 453.559,281.002 453.746,281.002 454.201 M260.118 454.542 C 260.118 454.860,260.206 455.174,260.312 455.240 C 260.419 455.306,260.460 455.046,260.404 454.662 C 260.280 453.816,260.118 453.748,260.118 454.542 M287.156 454.675 C 287.156 455.130,287.204 455.317,287.264 455.089 C 287.323 454.861,287.323 454.488,287.264 454.260 C 287.204 454.033,287.156 454.219,287.156 454.675 M121.600 454.605 C 121.895 454.662,122.321 454.660,122.547 454.600 C 122.773 454.541,122.533 454.495,122.012 454.498 C 121.491 454.500,121.306 454.549,121.600 454.605 M276.627 454.605 C 276.920 454.661,277.399 454.661,277.692 454.605 C 277.985 454.548,277.746 454.502,277.160 454.502 C 276.574 454.502,276.334 454.548,276.627 454.605 M223.985 457.278 C 223.985 458.254,224.027 458.654,224.078 458.166 C 224.129 457.678,224.129 456.879,224.078 456.391 C 224.027 455.902,223.985 456.302,223.985 457.278 M245.917 457.396 C 246.359 457.852,246.773 458.225,246.838 458.225 C 246.904 458.225,246.595 457.852,246.154 457.396 C 245.712 456.941,245.298 456.568,245.233 456.568 C 245.167 456.568,245.476 456.941,245.917 457.396 M248.639 460.118 C 249.543 461.030,250.336 461.775,250.402 461.775 C 250.467 461.775,249.780 461.030,248.876 460.118 C 247.971 459.207,247.178 458.462,247.113 458.462 C 247.048 458.462,247.735 459.207,248.639 460.118 M272.740 460.710 C 272.741 461.621,272.784 461.965,272.835 461.474 C 272.887 460.983,272.886 460.237,272.834 459.817 C 272.781 459.397,272.739 459.799,272.740 460.710 M280.304 460.237 C 280.306 460.888,280.352 461.126,280.407 460.766 C 280.461 460.406,280.459 459.874,280.403 459.583 C 280.347 459.291,280.303 459.586,280.304 460.237 M250.651 462.086 C 250.651 462.127,250.997 462.473,251.420 462.855 L 252.189 463.550 251.494 462.781 C 250.846 462.064,250.651 461.903,250.651 462.086 M149.695 463.491 L 148.521 464.734 149.763 463.559 C 150.918 462.468,151.114 462.249,150.938 462.249 C 150.900 462.249,150.341 462.808,149.695 463.491 M263.517 464.379 C 263.517 465.615,263.557 466.121,263.606 465.503 C 263.655 464.885,263.655 463.873,263.606 463.254 C 263.557 462.636,263.517 463.142,263.517 464.379 M155.558 466.036 C 155.558 466.491,155.607 466.678,155.666 466.450 C 155.726 466.222,155.726 465.849,155.666 465.621 C 155.607 465.393,155.558 465.580,155.558 466.036 M185.148 466.199 C 185.376 466.258,185.749 466.258,185.976 466.199 C 186.204 466.139,186.018 466.090,185.562 466.090 C 185.107 466.090,184.920 466.139,185.148 466.199 M135.676 467.219 C 135.676 467.675,135.725 467.861,135.784 467.633 C 135.844 467.405,135.844 467.033,135.784 466.805 C 135.725 466.577,135.676 466.763,135.676 467.219 M244.801 468.521 C 244.803 469.172,244.849 469.410,244.904 469.050 C 244.958 468.690,244.957 468.158,244.900 467.867 C 244.844 467.575,244.800 467.870,244.801 468.521 M145.854 468.876 C 145.854 469.331,145.902 469.518,145.962 469.290 C 146.022 469.062,146.022 468.689,145.962 468.462 C 145.902 468.234,145.854 468.420,145.854 468.876 M232.269 470.059 C 232.269 471.036,232.311 471.435,232.362 470.947 C 232.413 470.459,232.413 469.660,232.362 469.172 C 232.311 468.683,232.269 469.083,232.269 470.059 M167.884 469.941 C 167.885 470.722,167.930 471.013,167.982 470.587 C 168.035 470.162,168.034 469.523,167.980 469.167 C 167.926 468.812,167.883 469.160,167.884 469.941 M193.703 471.834 C 193.703 473.657,193.740 474.371,193.785 473.422 C 193.830 472.472,193.830 470.981,193.785 470.108 C 193.739 469.235,193.702 470.012,193.703 471.834 M206.008 473.018 C 206.008 474.580,206.046 475.188,206.093 474.369 C 206.139 473.551,206.139 472.273,206.092 471.529 C 206.045 470.786,206.007 471.456,206.008 473.018 M180.410 474.320 C 180.410 474.775,180.459 474.962,180.518 474.734 C 180.578 474.506,180.578 474.133,180.518 473.905 C 180.459 473.678,180.410 473.864,180.410 474.320 M192.481 474.320 C 192.481 474.775,192.530 474.962,192.589 474.734 C 192.649 474.506,192.649 474.133,192.589 473.905 C 192.530 473.678,192.481 473.864,192.481 474.320 M233.901 475.976 C 233.901 476.432,233.950 476.618,234.009 476.391 C 234.069 476.163,234.069 475.790,234.009 475.562 C 233.950 475.334,233.901 475.521,233.901 475.976 M220.883 476.923 C 220.883 477.379,220.932 477.565,220.992 477.337 C 221.051 477.109,221.051 476.737,220.992 476.509 C 220.932 476.281,220.883 476.467,220.883 476.923 M192.718 479.053 C 192.718 479.509,192.766 479.695,192.826 479.467 C 192.885 479.240,192.885 478.867,192.826 478.639 C 192.766 478.411,192.718 478.598,192.718 479.053 M213.905 492.001 C 214.198 492.058,214.678 492.058,214.970 492.001 C 215.263 491.945,215.024 491.899,214.438 491.899 C 213.852 491.899,213.612 491.945,213.905 492.001 M87.456 508.876 C 87.964 509.396,88.433 509.822,88.498 509.822 C 88.564 509.822,88.201 509.396,87.692 508.876 C 87.184 508.355,86.715 507.929,86.649 507.929 C 86.584 507.929,86.947 508.355,87.456 508.876 M111.361 526.391 C 111.869 526.911,112.339 527.337,112.404 527.337 C 112.469 527.337,112.106 526.911,111.598 526.391 C 111.089 525.870,110.620 525.444,110.555 525.444 C 110.490 525.444,110.852 525.870,111.361 526.391 M282.955 531.420 L 279.645 534.793 283.018 531.482 C 284.873 529.662,286.391 528.144,286.391 528.110 C 286.391 527.940,286.031 528.287,282.955 531.420 M107.337 531.361 C 107.846 531.882,108.315 532.308,108.380 532.308 C 108.445 532.308,108.082 531.882,107.574 531.361 C 107.066 530.840,106.596 530.414,106.531 530.414 C 106.466 530.414,106.829 530.840,107.337 531.361 M111.479 535.503 C 112.186 536.219,112.818 536.805,112.883 536.805 C 112.948 536.805,112.423 536.219,111.716 535.503 C 111.009 534.787,110.377 534.201,110.312 534.201 C 110.247 534.201,110.772 534.787,111.479 535.503 M281.293 542.308 L 280.118 543.550 281.361 542.376 C 282.516 541.284,282.712 541.065,282.535 541.065 C 282.498 541.065,281.939 541.624,281.293 542.308 M206.213 561.110 C 206.441 561.169,206.814 561.169,207.041 561.110 C 207.269 561.050,207.083 561.002,206.627 561.002 C 206.172 561.002,205.985 561.050,206.213 561.110 M188.583 561.351 C 188.877 561.407,189.303 561.405,189.529 561.346 C 189.756 561.287,189.515 561.240,188.994 561.243 C 188.473 561.246,188.288 561.294,188.583 561.351 M210.000 561.347 C 210.228 561.406,210.601 561.406,210.828 561.347 C 211.056 561.287,210.870 561.238,210.414 561.238 C 209.959 561.238,209.772 561.287,210.000 561.347 M174.497 567.737 C 174.725 567.797,175.098 567.797,175.325 567.737 C 175.553 567.678,175.367 567.629,174.911 567.629 C 174.456 567.629,174.269 567.678,174.497 567.737 M192.012 567.737 C 192.240 567.797,192.612 567.797,192.840 567.737 C 193.068 567.678,192.882 567.629,192.426 567.629 C 191.970 567.629,191.784 567.678,192.012 567.737 M181.361 567.987 C 182.500 568.030,184.364 568.030,185.503 567.987 C 186.642 567.943,185.710 567.908,183.432 567.908 C 181.154 567.908,180.222 567.943,181.361 567.987 M210.947 567.974 C 211.175 568.033,211.547 568.033,211.775 567.974 C 212.003 567.914,211.817 567.866,211.361 567.866 C 210.905 567.866,210.719 567.914,210.947 567.974 " stroke="none" fill="#9b9b9b" fill-rule="evenodd"></path><path id="path3" d="M187.870 0.640 C 188.163 0.697,188.642 0.697,188.935 0.640 C 189.228 0.584,188.988 0.538,188.402 0.538 C 187.817 0.538,187.577 0.584,187.870 0.640 M210.950 0.643 C 211.310 0.698,211.842 0.696,212.133 0.640 C 212.425 0.584,212.130 0.539,211.479 0.541 C 210.828 0.543,210.590 0.589,210.950 0.643 M220.888 1.347 C 221.115 1.406,221.488 1.406,221.716 1.347 C 221.944 1.287,221.757 1.238,221.302 1.238 C 220.846 1.238,220.660 1.287,220.888 1.347 M192.134 6.799 C 192.560 6.851,193.199 6.850,193.555 6.796 C 193.910 6.742,193.562 6.699,192.781 6.701 C 192.000 6.702,191.709 6.746,192.134 6.799 M206.099 6.799 C 206.524 6.851,207.163 6.850,207.519 6.796 C 207.875 6.742,207.527 6.699,206.746 6.701 C 205.964 6.702,205.674 6.746,206.099 6.799 M47.570 56.036 L 44.615 59.053 47.633 56.098 C 50.436 53.353,50.758 53.018,50.588 53.018 C 50.554 53.018,49.196 54.376,47.570 56.036 M350.286 54.497 C 351.267 55.542,351.479 55.730,351.479 55.552 C 351.479 55.514,350.973 55.008,350.355 54.428 L 349.231 53.373 350.286 54.497 M344.260 57.515 C 344.769 58.036,345.238 58.462,345.303 58.462 C 345.368 58.462,345.006 58.036,344.497 57.515 C 343.989 56.994,343.519 56.568,343.454 56.568 C 343.389 56.568,343.752 56.994,344.260 57.515 M354.793 59.053 C 355.235 59.509,355.649 59.882,355.714 59.882 C 355.779 59.882,355.471 59.509,355.030 59.053 C 354.588 58.598,354.173 58.225,354.108 58.225 C 354.043 58.225,354.351 58.598,354.793 59.053 M350.533 63.787 C 350.974 64.243,351.389 64.615,351.454 64.615 C 351.519 64.615,351.211 64.243,350.769 63.787 C 350.328 63.331,349.913 62.959,349.848 62.959 C 349.783 62.959,350.091 63.331,350.533 63.787 M47.798 65.266 L 46.982 66.154 47.870 65.338 C 48.696 64.579,48.866 64.379,48.685 64.379 C 48.646 64.379,48.247 64.778,47.798 65.266 M398.635 158.817 C 398.635 159.272,398.684 159.459,398.743 159.231 C 398.803 159.003,398.803 158.630,398.743 158.402 C 398.684 158.175,398.635 158.361,398.635 158.817 M0.528 161.183 C 0.528 161.639,0.577 161.825,0.637 161.598 C 0.696 161.370,0.696 160.997,0.637 160.769 C 0.577 160.541,0.528 160.728,0.528 161.183 M6.692 164.260 C 6.692 164.846,6.738 165.086,6.794 164.793 C 6.851 164.500,6.851 164.021,6.794 163.728 C 6.738 163.435,6.692 163.675,6.692 164.260 M0.292 164.970 C 0.292 165.426,0.340 165.612,0.400 165.385 C 0.459 165.157,0.459 164.784,0.400 164.556 C 0.340 164.328,0.292 164.515,0.292 164.970 M0.068 170.533 C 0.069 171.183,0.115 171.422,0.170 171.062 C 0.224 170.702,0.223 170.170,0.167 169.878 C 0.110 169.587,0.066 169.882,0.068 170.533 M6.455 170.651 C 6.455 171.237,6.501 171.476,6.558 171.183 C 6.614 170.891,6.614 170.411,6.558 170.118 C 6.501 169.825,6.455 170.065,6.455 170.651 M393.226 174.675 C 393.226 176.172,393.264 176.784,393.311 176.036 C 393.358 175.287,393.358 174.062,393.311 173.314 C 393.264 172.565,393.226 173.178,393.226 174.675 M399.384 176.095 C 399.384 177.982,399.421 178.754,399.466 177.811 C 399.511 176.867,399.511 175.322,399.466 174.379 C 399.421 173.435,399.384 174.207,399.384 176.095 M0.068 179.763 C 0.069 180.414,0.115 180.652,0.170 180.293 C 0.224 179.933,0.223 179.400,0.167 179.109 C 0.110 178.818,0.066 179.112,0.068 179.763 M6.455 180.118 C 6.455 180.704,6.501 180.944,6.558 180.651 C 6.614 180.358,6.614 179.879,6.558 179.586 C 6.501 179.293,6.455 179.533,6.455 180.118 M392.959 183.550 C 392.962 184.071,393.010 184.256,393.067 183.962 C 393.123 183.667,393.121 183.241,393.062 183.015 C 393.003 182.789,392.956 183.030,392.959 183.550 M0.292 185.799 C 0.292 186.254,0.340 186.441,0.400 186.213 C 0.459 185.985,0.459 185.612,0.400 185.385 C 0.340 185.157,0.292 185.343,0.292 185.799 M399.108 186.746 C 399.108 187.201,399.157 187.388,399.216 187.160 C 399.276 186.932,399.276 186.559,399.216 186.331 C 399.157 186.104,399.108 186.290,399.108 186.746 M6.698 187.456 C 6.698 188.172,6.743 188.464,6.797 188.107 C 6.851 187.749,6.851 187.163,6.797 186.805 C 6.743 186.447,6.698 186.740,6.698 187.456 M0.538 190.059 C 0.538 190.645,0.584 190.885,0.640 190.592 C 0.697 190.299,0.697 189.820,0.640 189.527 C 0.584 189.234,0.538 189.473,0.538 190.059 M398.871 191.243 C 398.871 191.698,398.920 191.885,398.980 191.657 C 399.039 191.429,399.039 191.056,398.980 190.828 C 398.920 190.601,398.871 190.787,398.871 191.243 M392.486 192.308 C 392.488 192.828,392.537 193.014,392.593 192.719 C 392.650 192.425,392.648 191.999,392.589 191.772 C 392.529 191.546,392.483 191.787,392.486 192.308 M398.640 195.148 C 398.642 195.669,398.691 195.854,398.747 195.559 C 398.804 195.265,398.802 194.839,398.743 194.613 C 398.683 194.386,398.637 194.627,398.640 195.148 M108.225 233.536 C 108.453 233.595,108.825 233.595,109.053 233.536 C 109.281 233.476,109.095 233.428,108.639 233.428 C 108.183 233.428,107.997 233.476,108.225 233.536 M114.142 233.542 C 114.500 233.597,115.086 233.597,115.444 233.542 C 115.802 233.488,115.509 233.444,114.793 233.444 C 114.077 233.444,113.784 233.488,114.142 233.542 M285.030 233.542 C 285.388 233.597,285.973 233.597,286.331 233.542 C 286.689 233.488,286.396 233.444,285.680 233.444 C 284.964 233.444,284.672 233.488,285.030 233.542 M291.305 233.540 C 291.599 233.597,292.025 233.595,292.251 233.535 C 292.478 233.476,292.237 233.430,291.716 233.432 C 291.195 233.435,291.010 233.484,291.305 233.540 M376.150 238.817 C 376.150 239.272,376.198 239.459,376.258 239.231 C 376.317 239.003,376.317 238.630,376.258 238.402 C 376.198 238.175,376.150 238.361,376.150 238.817 M25.148 245.799 C 25.151 246.320,25.200 246.505,25.256 246.210 C 25.313 245.916,25.311 245.490,25.251 245.264 C 25.192 245.037,25.146 245.278,25.148 245.799 M150.296 246.272 C 151.003 246.988,151.635 247.574,151.700 247.574 C 151.765 247.574,151.240 246.988,150.533 246.272 C 149.825 245.556,149.194 244.970,149.129 244.970 C 149.064 244.970,149.589 245.556,150.296 246.272 M375.689 250.059 C 375.691 250.710,375.737 250.948,375.791 250.588 C 375.846 250.229,375.844 249.696,375.788 249.405 C 375.732 249.114,375.687 249.408,375.689 250.059 M371.421 257.870 C 371.423 258.391,371.472 258.576,371.528 258.281 C 371.585 257.987,371.583 257.561,371.524 257.335 C 371.464 257.108,371.418 257.349,371.421 257.870 M375.692 259.408 C 375.692 260.124,375.737 260.417,375.791 260.059 C 375.845 259.701,375.845 259.115,375.791 258.757 C 375.737 258.399,375.692 258.692,375.692 259.408 M371.184 263.077 C 371.187 263.598,371.235 263.783,371.292 263.488 C 371.348 263.194,371.346 262.768,371.287 262.542 C 371.228 262.315,371.181 262.556,371.184 263.077 M25.144 263.432 C 25.144 263.888,25.192 264.074,25.252 263.846 C 25.311 263.618,25.311 263.246,25.252 263.018 C 25.192 262.790,25.144 262.976,25.144 263.432 M29.902 267.692 C 29.902 268.669,29.944 269.068,29.995 268.580 C 30.046 268.092,30.046 267.293,29.995 266.805 C 29.944 266.317,29.902 266.716,29.902 267.692 M376.150 269.349 C 376.150 269.805,376.198 269.991,376.258 269.763 C 376.317 269.536,376.317 269.163,376.258 268.935 C 376.198 268.707,376.150 268.893,376.150 269.349 M371.189 272.899 C 371.189 273.485,371.235 273.725,371.291 273.432 C 371.348 273.139,371.348 272.660,371.291 272.367 C 371.235 272.074,371.189 272.314,371.189 272.899 M371.421 277.988 C 371.423 278.509,371.472 278.694,371.528 278.400 C 371.585 278.105,371.583 277.679,371.524 277.453 C 371.464 277.227,371.418 277.467,371.421 277.988 M16.658 297.751 C 16.658 299.249,16.696 299.861,16.743 299.112 C 16.790 298.364,16.790 297.139,16.743 296.391 C 16.696 295.642,16.658 296.254,16.658 297.751 M318.810 304.556 L 317.278 306.154 318.876 304.622 C 320.360 303.200,320.582 302.959,320.407 302.959 C 320.371 302.959,319.652 303.678,318.810 304.556 M113.669 319.696 C 114.027 319.750,114.612 319.750,114.970 319.696 C 115.328 319.642,115.036 319.598,114.320 319.598 C 113.604 319.598,113.311 319.642,113.669 319.696 M285.389 319.698 C 285.814 319.751,286.453 319.750,286.809 319.696 C 287.165 319.642,286.817 319.599,286.036 319.600 C 285.254 319.601,284.963 319.645,285.389 319.698 M7.629 341.302 C 7.629 341.757,7.678 341.944,7.737 341.716 C 7.797 341.488,7.797 341.115,7.737 340.888 C 7.678 340.660,7.629 340.846,7.629 341.302 M393.444 344.379 C 393.444 345.095,393.488 345.388,393.542 345.030 C 393.597 344.672,393.597 344.086,393.542 343.728 C 393.488 343.370,393.444 343.663,393.444 344.379 M7.634 347.574 C 7.636 348.095,7.685 348.280,7.741 347.985 C 7.798 347.691,7.796 347.265,7.737 347.039 C 7.677 346.812,7.631 347.053,7.634 347.574 M231.332 366.391 C 231.332 367.888,231.371 368.500,231.418 367.751 C 231.464 367.003,231.464 365.778,231.418 365.030 C 231.371 364.281,231.332 364.893,231.332 366.391 M169.547 367.101 C 169.547 368.077,169.589 368.476,169.640 367.988 C 169.691 367.500,169.691 366.701,169.640 366.213 C 169.589 365.725,169.547 366.124,169.547 367.101 M375.372 372.959 L 374.556 373.846 375.444 373.030 C 376.270 372.271,376.440 372.071,376.259 372.071 C 376.220 372.071,375.820 372.470,375.372 372.959 M111.893 374.372 C 112.317 374.425,113.009 374.425,113.432 374.372 C 113.855 374.320,113.509 374.277,112.663 374.277 C 111.817 374.277,111.470 374.320,111.893 374.372 M287.510 374.372 C 287.930 374.424,288.675 374.425,289.166 374.374 C 289.657 374.323,289.314 374.280,288.402 374.279 C 287.491 374.278,287.089 374.320,287.510 374.372 M198.804 376.509 L 197.988 377.396 198.876 376.581 C 199.702 375.822,199.872 375.621,199.691 375.621 C 199.652 375.621,199.252 376.021,198.804 376.509 M59.349 385.492 C 59.642 385.549,60.121 385.549,60.414 385.492 C 60.707 385.436,60.467 385.390,59.882 385.390 C 59.296 385.390,59.056 385.436,59.349 385.492 M68.225 385.489 C 68.453 385.548,68.825 385.548,69.053 385.489 C 69.281 385.429,69.095 385.380,68.639 385.380 C 68.183 385.380,67.997 385.429,68.225 385.489 M331.893 385.489 C 332.121 385.548,332.494 385.548,332.722 385.489 C 332.950 385.429,332.763 385.380,332.308 385.380 C 331.852 385.380,331.666 385.429,331.893 385.489 M340.772 385.493 C 341.066 385.549,341.492 385.547,341.719 385.488 C 341.945 385.429,341.704 385.383,341.183 385.385 C 340.663 385.388,340.478 385.436,340.772 385.493 M86.982 397.633 C 87.491 398.154,87.960 398.580,88.025 398.580 C 88.090 398.580,87.727 398.154,87.219 397.633 C 86.710 397.112,86.241 396.686,86.176 396.686 C 86.111 396.686,86.474 397.112,86.982 397.633 M182.589 428.698 L 181.893 429.467 182.663 428.772 C 183.086 428.390,183.432 428.044,183.432 428.003 C 183.432 427.820,183.237 427.981,182.589 428.698 M111.314 441.893 C 111.314 442.609,111.358 442.902,111.412 442.544 C 111.466 442.186,111.466 441.601,111.412 441.243 C 111.358 440.885,111.314 441.178,111.314 441.893 M244.079 443.314 C 244.079 443.769,244.127 443.956,244.187 443.728 C 244.246 443.500,244.246 443.127,244.187 442.899 C 244.127 442.672,244.079 442.858,244.079 443.314 M117.963 445.917 C 117.963 447.675,118.000 448.393,118.045 447.515 C 118.091 446.636,118.091 445.198,118.045 444.320 C 118.000 443.441,117.963 444.160,117.963 445.917 M288.839 444.852 C 288.839 445.893,288.881 446.290,288.931 445.733 C 288.981 445.177,288.980 444.325,288.929 443.840 C 288.879 443.355,288.838 443.811,288.839 444.852 M141.120 445.444 C 141.120 445.899,141.169 446.086,141.228 445.858 C 141.288 445.630,141.288 445.257,141.228 445.030 C 141.169 444.802,141.120 444.988,141.120 445.444 M272.989 448.757 C 272.989 450.254,273.027 450.867,273.074 450.118 C 273.121 449.370,273.121 448.145,273.074 447.396 C 273.027 446.648,272.989 447.260,272.989 448.757 M139.941 447.692 C 139.944 448.213,139.992 448.398,140.049 448.104 C 140.106 447.809,140.104 447.383,140.044 447.157 C 139.985 446.931,139.939 447.172,139.941 447.692 M174.256 447.811 C 174.256 448.266,174.305 448.453,174.364 448.225 C 174.424 447.997,174.424 447.624,174.364 447.396 C 174.305 447.169,174.256 447.355,174.256 447.811 M224.235 451.124 C 224.235 452.882,224.272 453.601,224.318 452.722 C 224.363 451.843,224.363 450.405,224.318 449.527 C 224.272 448.648,224.235 449.367,224.235 451.124 M260.189 450.414 C 260.189 451.130,260.234 451.423,260.288 451.065 C 260.342 450.707,260.342 450.121,260.288 449.763 C 260.234 449.405,260.189 449.698,260.189 450.414 M225.627 450.414 C 225.627 451.000,225.673 451.240,225.729 450.947 C 225.786 450.654,225.786 450.175,225.729 449.882 C 225.673 449.589,225.627 449.828,225.627 450.414 M156.549 454.320 C 156.549 456.923,156.584 458.020,156.626 456.758 C 156.668 455.496,156.669 453.366,156.626 452.024 C 156.584 450.683,156.549 451.716,156.549 454.320 M175.918 455.030 C 175.920 455.550,175.969 455.735,176.025 455.441 C 176.082 455.147,176.080 454.721,176.021 454.494 C 175.961 454.268,175.915 454.509,175.918 455.030 M134.379 456.498 C 134.672 456.555,135.151 456.555,135.444 456.498 C 135.737 456.442,135.497 456.396,134.911 456.396 C 134.325 456.396,134.086 456.442,134.379 456.498 M264.556 456.498 C 264.849 456.555,265.328 456.555,265.621 456.498 C 265.914 456.442,265.675 456.396,265.089 456.396 C 264.503 456.396,264.263 456.442,264.556 456.498 M118.663 458.698 C 118.663 459.805,118.703 460.257,118.753 459.704 C 118.803 459.151,118.803 458.246,118.753 457.692 C 118.703 457.139,118.663 457.592,118.663 458.698 M281.501 458.580 C 281.502 459.621,281.544 460.018,281.594 459.461 C 281.644 458.905,281.643 458.052,281.592 457.568 C 281.541 457.083,281.500 457.538,281.501 458.580 M201.002 458.698 C 201.002 459.154,201.050 459.340,201.110 459.112 C 201.169 458.885,201.169 458.512,201.110 458.284 C 201.050 458.056,201.002 458.243,201.002 458.698 M139.467 458.861 C 139.695 458.921,140.068 458.921,140.296 458.861 C 140.524 458.802,140.337 458.753,139.882 458.753 C 139.426 458.753,139.240 458.802,139.467 458.861 M199.113 460.000 C 199.116 460.521,199.164 460.706,199.221 460.411 C 199.277 460.117,199.275 459.691,199.216 459.465 C 199.157 459.238,199.110 459.479,199.113 460.000 M273.919 460.710 C 273.921 461.491,273.965 461.782,274.018 461.357 C 274.070 460.931,274.069 460.292,274.015 459.937 C 273.961 459.581,273.918 459.929,273.919 460.710 M149.349 462.130 C 148.774 462.716,148.357 463.195,148.422 463.195 C 148.487 463.195,149.011 462.716,149.586 462.130 C 150.161 461.544,150.578 461.065,150.513 461.065 C 150.448 461.065,149.924 461.544,149.349 462.130 M264.683 464.260 C 264.685 464.911,264.731 465.149,264.785 464.790 C 264.840 464.430,264.838 463.897,264.782 463.606 C 264.726 463.315,264.681 463.609,264.683 464.260 M255.477 464.717 C 255.406 464.902,255.387 465.302,255.435 465.604 C 255.500 466.009,255.555 465.919,255.643 465.266 C 255.767 464.347,255.702 464.131,255.477 464.717 M165.266 465.261 C 165.754 465.312,166.553 465.312,167.041 465.261 C 167.530 465.210,167.130 465.168,166.154 465.168 C 165.178 465.168,164.778 465.210,165.266 465.261 M233.195 465.261 C 233.683 465.312,234.482 465.312,234.970 465.261 C 235.459 465.210,235.059 465.168,234.083 465.168 C 233.107 465.168,232.707 465.210,233.195 465.261 M156.517 468.521 C 156.519 469.172,156.565 469.410,156.620 469.050 C 156.674 468.690,156.672 468.158,156.616 467.867 C 156.560 467.575,156.516 467.870,156.517 468.521 M243.618 468.521 C 243.620 469.172,243.666 469.410,243.720 469.050 C 243.775 468.690,243.773 468.158,243.717 467.867 C 243.661 467.575,243.616 467.870,243.618 468.521 M233.702 471.006 C 233.702 472.763,233.739 473.482,233.785 472.604 C 233.831 471.725,233.831 470.287,233.785 469.408 C 233.739 468.530,233.702 469.249,233.702 471.006 M255.444 469.467 C 255.447 469.988,255.495 470.173,255.552 469.879 C 255.609 469.584,255.606 469.158,255.547 468.932 C 255.488 468.706,255.442 468.947,255.444 469.467 M192.510 470.888 C 192.509 472.059,192.549 472.568,192.599 472.019 C 192.649 471.470,192.649 470.511,192.600 469.889 C 192.551 469.267,192.511 469.716,192.510 470.888 M219.968 471.124 C 219.969 472.426,220.008 472.928,220.056 472.241 C 220.104 471.553,220.104 470.488,220.055 469.874 C 220.007 469.260,219.967 469.822,219.968 471.124 M207.198 473.609 C 207.198 475.888,207.233 476.820,207.277 475.680 C 207.320 474.541,207.320 472.678,207.277 471.538 C 207.233 470.399,207.198 471.331,207.198 473.609 M166.445 473.609 C 166.445 474.065,166.494 474.251,166.554 474.024 C 166.613 473.796,166.613 473.423,166.554 473.195 C 166.494 472.967,166.445 473.154,166.445 473.609 M179.227 474.320 C 179.227 474.775,179.275 474.962,179.335 474.734 C 179.394 474.506,179.394 474.133,179.335 473.905 C 179.275 473.678,179.227 473.864,179.227 474.320 M220.893 474.793 C 220.893 475.379,220.939 475.618,220.995 475.325 C 221.052 475.033,221.052 474.553,220.995 474.260 C 220.939 473.967,220.893 474.207,220.893 474.793 M311.825 509.172 L 310.651 510.414 311.893 509.240 C 313.048 508.148,313.245 507.929,313.068 507.929 C 313.031 507.929,312.471 508.488,311.825 509.172 M315.133 514.852 L 314.438 515.621 315.207 514.926 C 315.630 514.544,315.976 514.198,315.976 514.157 C 315.976 513.974,315.781 514.135,315.133 514.852 M287.918 526.686 L 286.982 527.692 287.988 526.757 C 288.541 526.242,288.994 525.789,288.994 525.751 C 288.994 525.572,288.788 525.751,287.918 526.686 M291.117 532.485 L 289.586 534.083 291.183 532.551 C 292.062 531.709,292.781 530.990,292.781 530.954 C 292.781 530.779,292.540 531.001,291.117 532.485 M277.269 537.101 L 276.095 538.343 277.337 537.169 C 278.492 536.077,278.688 535.858,278.512 535.858 C 278.474 535.858,277.915 536.417,277.269 537.101 M122.130 537.160 C 122.572 537.615,122.986 537.988,123.051 537.988 C 123.117 537.988,122.808 537.615,122.367 537.160 C 121.925 536.704,121.511 536.331,121.446 536.331 C 121.381 536.331,121.689 536.704,122.130 537.160 M114.083 538.107 C 114.524 538.562,114.939 538.935,115.004 538.935 C 115.069 538.935,114.761 538.562,114.320 538.107 C 113.878 537.651,113.463 537.278,113.398 537.278 C 113.333 537.278,113.641 537.651,114.083 538.107 M118.343 542.367 C 118.785 542.822,119.199 543.195,119.264 543.195 C 119.330 543.195,119.021 542.822,118.580 542.367 C 118.138 541.911,117.724 541.538,117.659 541.538 C 117.594 541.538,117.902 541.911,118.343 542.367 M198.047 560.640 C 198.340 560.697,198.820 560.697,199.112 560.640 C 199.405 560.584,199.166 560.538,198.580 560.538 C 197.994 560.538,197.754 560.584,198.047 560.640 M200.533 560.637 C 200.760 560.696,201.133 560.696,201.361 560.637 C 201.589 560.577,201.402 560.528,200.947 560.528 C 200.491 560.528,200.305 560.577,200.533 560.637 M174.734 561.347 C 174.962 561.406,175.334 561.406,175.562 561.347 C 175.790 561.287,175.604 561.238,175.148 561.238 C 174.692 561.238,174.506 561.287,174.734 561.347 M190.713 561.351 C 191.007 561.407,191.433 561.405,191.660 561.346 C 191.886 561.287,191.645 561.240,191.124 561.243 C 190.604 561.246,190.418 561.294,190.713 561.351 M207.991 561.351 C 208.285 561.407,208.711 561.405,208.938 561.346 C 209.164 561.287,208.923 561.240,208.402 561.243 C 207.882 561.246,207.697 561.294,207.991 561.351 M224.438 561.347 C 224.666 561.406,225.038 561.406,225.266 561.347 C 225.494 561.287,225.308 561.238,224.852 561.238 C 224.396 561.238,224.210 561.287,224.438 561.347 M179.352 561.588 C 179.646 561.644,180.072 561.642,180.299 561.583 C 180.525 561.524,180.284 561.477,179.763 561.480 C 179.243 561.482,179.057 561.531,179.352 561.588 M185.032 561.588 C 185.327 561.644,185.753 561.642,185.979 561.583 C 186.205 561.524,185.964 561.477,185.444 561.480 C 184.923 561.482,184.738 561.531,185.032 561.588 M213.554 561.590 C 213.913 561.644,214.446 561.643,214.737 561.587 C 215.028 561.531,214.734 561.486,214.083 561.488 C 213.432 561.490,213.194 561.536,213.554 561.590 M219.112 561.587 C 219.405 561.644,219.885 561.644,220.178 561.587 C 220.470 561.531,220.231 561.485,219.645 561.485 C 219.059 561.485,218.820 561.531,219.112 561.587 M193.905 567.500 C 194.133 567.560,194.506 567.560,194.734 567.500 C 194.962 567.441,194.775 567.392,194.320 567.392 C 193.864 567.392,193.678 567.441,193.905 567.500 M176.512 567.741 C 176.806 567.798,177.232 567.796,177.458 567.737 C 177.685 567.677,177.444 567.631,176.923 567.634 C 176.402 567.636,176.217 567.685,176.512 567.741 M189.766 567.741 C 190.060 567.798,190.487 567.796,190.713 567.737 C 190.939 567.677,190.698 567.631,190.178 567.634 C 189.657 567.636,189.472 567.685,189.766 567.741 M208.343 567.737 C 208.571 567.797,208.944 567.797,209.172 567.737 C 209.399 567.678,209.213 567.629,208.757 567.629 C 208.302 567.629,208.115 567.678,208.343 567.737 M212.959 567.978 C 213.251 568.034,213.731 568.034,214.024 567.978 C 214.317 567.921,214.077 567.875,213.491 567.875 C 212.905 567.875,212.666 567.921,212.959 567.978 M220.178 567.974 C 220.405 568.033,220.778 568.033,221.006 567.974 C 221.234 567.914,221.047 567.866,220.592 567.866 C 220.136 567.866,219.950 567.914,220.178 567.974 " stroke="none" fill="#737473" fill-rule="evenodd"></path><path id="path4" d="M6.445 172.308 C 6.445 172.763,6.494 172.950,6.554 172.722 C 6.613 172.494,6.613 172.121,6.554 171.893 C 6.494 171.666,6.445 171.852,6.445 172.308 M6.445 178.462 C 6.445 178.917,6.494 179.104,6.554 178.876 C 6.613 178.648,6.613 178.275,6.554 178.047 C 6.494 177.820,6.445 178.006,6.445 178.462 M375.676 251.834 C 375.676 252.290,375.725 252.476,375.784 252.249 C 375.844 252.021,375.844 251.648,375.784 251.420 C 375.725 251.192,375.676 251.379,375.676 251.834 M375.676 257.515 C 375.676 257.970,375.725 258.157,375.784 257.929 C 375.844 257.701,375.844 257.328,375.784 257.101 C 375.725 256.873,375.676 257.059,375.676 257.515 M334.261 269.231 C 334.263 269.751,334.312 269.937,334.369 269.642 C 334.425 269.348,334.423 268.922,334.364 268.695 C 334.305 268.469,334.258 268.710,334.261 269.231 M29.887 270.296 C 29.887 270.882,29.933 271.121,29.990 270.828 C 30.046 270.536,30.046 270.056,29.990 269.763 C 29.933 269.470,29.887 269.710,29.887 270.296 M216.275 381.706 C 216.569 381.762,216.995 381.760,217.222 381.701 C 217.448 381.642,217.207 381.596,216.686 381.598 C 216.166 381.601,215.981 381.649,216.275 381.706 M111.324 444.852 C 111.325 445.893,111.366 446.290,111.416 445.733 C 111.466 445.177,111.466 444.325,111.415 443.840 C 111.364 443.355,111.323 443.811,111.324 444.852 M260.173 448.521 C 260.173 448.976,260.222 449.163,260.281 448.935 C 260.341 448.707,260.341 448.334,260.281 448.107 C 260.222 447.879,260.173 448.065,260.173 448.521 M260.173 452.308 C 260.173 452.763,260.222 452.950,260.281 452.722 C 260.341 452.494,260.341 452.121,260.281 451.893 C 260.222 451.666,260.173 451.852,260.173 452.308 M249.941 463.077 C 250.382 463.533,250.797 463.905,250.862 463.905 C 250.927 463.905,250.619 463.533,250.178 463.077 C 249.736 462.621,249.321 462.249,249.256 462.249 C 249.191 462.249,249.499 462.621,249.941 463.077 M264.680 466.272 C 264.680 466.858,264.726 467.098,264.782 466.805 C 264.839 466.512,264.839 466.033,264.782 465.740 C 264.726 465.447,264.680 465.686,264.680 466.272 M166.472 471.124 C 166.473 472.166,166.514 472.562,166.564 472.006 C 166.614 471.449,166.613 470.597,166.563 470.112 C 166.512 469.627,166.471 470.083,166.472 471.124 M117.396 532.382 C 117.396 532.422,117.743 532.769,118.166 533.151 L 118.935 533.846 118.240 533.077 C 117.592 532.360,117.396 532.199,117.396 532.382 M181.605 561.594 C 182.227 561.643,183.186 561.643,183.735 561.593 C 184.284 561.543,183.775 561.503,182.604 561.504 C 181.432 561.505,180.983 561.545,181.605 561.594 M216.042 561.594 C 216.598 561.644,217.451 561.643,217.935 561.592 C 218.420 561.541,217.964 561.500,216.923 561.501 C 215.882 561.502,215.485 561.544,216.042 561.594 " stroke="none" fill="#7c7c7c" fill-rule="evenodd"></path></g></svg>